<svg width="67" height="28" viewBox="0 0 67 28" fill="none" xmlns="http://www.w3.org/2000/svg">
<path d="M1.053 14.55C1.053 13.146 1.251 11.85 1.647 10.662C2.043 9.456 2.628 8.421 3.402 7.557C4.176 6.675 5.13 5.991 6.264 5.505C7.398 5.019 8.703 4.776 10.179 4.776C11.655 4.776 12.96 5.019 14.094 5.505C15.228 5.991 16.173 6.675 16.929 7.557C17.703 8.421 18.288 9.456 18.684 10.662C19.08 11.85 19.278 13.146 19.278 14.55C19.278 15.954 19.08 17.259 18.684 18.465C18.288 19.653 17.703 20.688 16.929 21.57C16.173 22.434 15.228 23.109 14.094 23.595C12.96 24.081 11.655 24.324 10.179 24.324C8.703 24.324 7.398 24.081 6.264 23.595C5.13 23.109 4.176 22.434 3.402 21.57C2.628 20.688 2.043 19.653 1.647 18.465C1.251 17.259 1.053 15.954 1.053 14.55ZM5.643 14.55C5.643 15.702 5.733 16.773 5.913 17.763C6.093 18.735 6.372 19.581 6.75 20.301C7.146 21.003 7.641 21.561 8.235 21.975C8.847 22.371 9.576 22.569 10.422 22.569C11.196 22.569 11.853 22.371 12.393 21.975C12.933 21.561 13.374 21.003 13.716 20.301C14.058 19.581 14.301 18.735 14.445 17.763C14.607 16.773 14.688 15.702 14.688 14.55C14.688 13.398 14.598 12.336 14.418 11.364C14.256 10.374 13.986 9.528 13.608 8.826C13.248 8.106 12.762 7.548 12.15 7.152C11.556 6.738 10.827 6.531 9.963 6.531C9.135 6.531 8.442 6.738 7.884 7.152C7.326 7.548 6.876 8.106 6.534 8.826C6.21 9.528 5.976 10.374 5.832 11.364C5.706 12.336 5.643 13.398 5.643 14.55ZM29.5895 24H21.1655V22.974C21.8855 22.578 22.6145 22.317 23.3525 22.191V6.909C22.9925 6.855 22.6145 6.756 22.2185 6.612C21.8225 6.468 21.4715 6.306 21.1655 6.126V5.1H29.5895V6.126C29.2655 6.324 28.9055 6.495 28.5095 6.639C28.1315 6.765 27.7625 6.855 27.4025 6.909V22.191C27.7625 22.263 28.1315 22.362 28.5095 22.488C28.9055 22.614 29.2655 22.776 29.5895 22.974V24ZM45.6294 6.909C45.1974 6.819 44.7834 6.702 44.3874 6.558C44.0094 6.414 43.6674 6.27 43.3614 6.126V5.1H50.2194V6.126C50.0034 6.27 49.7154 6.414 49.3554 6.558C49.0134 6.702 48.6534 6.819 48.2754 6.909L42.0654 24L39.3924 24.324L32.4264 6.909C32.0664 6.819 31.7064 6.711 31.3464 6.585C30.9864 6.441 30.6714 6.288 30.4014 6.126V5.1H39.3924V6.126C39.0864 6.27 38.7444 6.414 38.3664 6.558C37.9884 6.702 37.5924 6.819 37.1784 6.909L40.9584 17.547L41.5794 20.085H41.6334L42.2274 17.493L45.6294 6.909ZM53.3917 24H46.7227V22.974C47.0107 22.794 47.3167 22.641 47.6407 22.515C47.9827 22.371 48.3157 22.263 48.6397 22.191L55.6057 4.776H57.6037L64.3807 22.191C64.7407 22.263 65.1007 22.371 65.4607 22.515C65.8207 22.641 66.1357 22.794 66.4057 22.974V24H57.9547V22.974C58.2967 22.812 58.6657 22.659 59.0617 22.515C59.4577 22.371 59.8357 22.263 60.1957 22.191L58.6297 17.898H52.6357L51.0427 22.191C51.8707 22.299 52.6537 22.56 53.3917 22.974V24ZM53.2837 16.143H58.0627L56.3077 10.986L55.7947 8.664H55.7407L55.1467 11.04L53.2837 16.143Z" fill="white"/>
</svg>
