<svg width="245" height="36" viewBox="0 0 245 36" fill="none" xmlns="http://www.w3.org/2000/svg">
<path d="M1.053 18.55C1.053 17.146 1.251 15.85 1.647 14.662C2.043 13.456 2.628 12.421 3.402 11.557C4.176 10.675 5.13 9.991 6.264 9.505C7.398 9.019 8.703 8.776 10.179 8.776C11.655 8.776 12.96 9.019 14.094 9.505C15.228 9.991 16.173 10.675 16.929 11.557C17.703 12.421 18.288 13.456 18.684 14.662C19.08 15.85 19.278 17.146 19.278 18.55C19.278 19.954 19.08 21.259 18.684 22.465C18.288 23.653 17.703 24.688 16.929 25.57C16.173 26.434 15.228 27.109 14.094 27.595C12.96 28.081 11.655 28.324 10.179 28.324C8.703 28.324 7.398 28.081 6.264 27.595C5.13 27.109 4.176 26.434 3.402 25.57C2.628 24.688 2.043 23.653 1.647 22.465C1.251 21.259 1.053 19.954 1.053 18.55ZM5.643 18.55C5.643 19.702 5.733 20.773 5.913 21.763C6.093 22.735 6.372 23.581 6.75 24.301C7.146 25.003 7.641 25.561 8.235 25.975C8.847 26.371 9.576 26.569 10.422 26.569C11.196 26.569 11.853 26.371 12.393 25.975C12.933 25.561 13.374 25.003 13.716 24.301C14.058 23.581 14.301 22.735 14.445 21.763C14.607 20.773 14.688 19.702 14.688 18.55C14.688 17.398 14.598 16.336 14.418 15.364C14.256 14.374 13.986 13.528 13.608 12.826C13.248 12.106 12.762 11.548 12.15 11.152C11.556 10.738 10.827 10.531 9.963 10.531C9.135 10.531 8.442 10.738 7.884 11.152C7.326 11.548 6.876 12.106 6.534 12.826C6.21 13.528 5.976 14.374 5.832 15.364C5.706 16.336 5.643 17.398 5.643 18.55ZM29.5895 28H21.1655V26.974C21.8855 26.578 22.6145 26.317 23.3525 26.191V10.909C22.9925 10.855 22.6145 10.756 22.2185 10.612C21.8225 10.468 21.4715 10.306 21.1655 10.126V9.1H29.5895V10.126C29.2655 10.324 28.9055 10.495 28.5095 10.639C28.1315 10.765 27.7625 10.855 27.4025 10.909V26.191C27.7625 26.263 28.1315 26.362 28.5095 26.488C28.9055 26.614 29.2655 26.776 29.5895 26.974V28ZM45.6294 10.909C45.1974 10.819 44.7834 10.702 44.3874 10.558C44.0094 10.414 43.6674 10.27 43.3614 10.126V9.1H50.2194V10.126C50.0034 10.27 49.7154 10.414 49.3554 10.558C49.0134 10.702 48.6534 10.819 48.2754 10.909L42.0654 28L39.3924 28.324L32.4264 10.909C32.0664 10.819 31.7064 10.711 31.3464 10.585C30.9864 10.441 30.6714 10.288 30.4014 10.126V9.1H39.3924V10.126C39.0864 10.27 38.7444 10.414 38.3664 10.558C37.9884 10.702 37.5924 10.819 37.1784 10.909L40.9584 21.547L41.5794 24.085H41.6334L42.2274 21.493L45.6294 10.909ZM53.3917 28H46.7227V26.974C47.0107 26.794 47.3167 26.641 47.6407 26.515C47.9827 26.371 48.3157 26.263 48.6397 26.191L55.6057 8.776H57.6037L64.3807 26.191C64.7407 26.263 65.1007 26.371 65.4607 26.515C65.8207 26.641 66.1357 26.794 66.4057 26.974V28H57.9547V26.974C58.2967 26.812 58.6657 26.659 59.0617 26.515C59.4577 26.371 59.8357 26.263 60.1957 26.191L58.6297 21.898H52.6357L51.0427 26.191C51.8707 26.299 52.6537 26.56 53.3917 26.974V28ZM53.2837 20.143H58.0627L56.3077 14.986L55.7947 12.664H55.7407L55.1467 15.04L53.2837 20.143Z" fill="white"/>
<path d="M82.9961 7.46875V13.2695C82.9922 14.0742 82.7383 14.7324 82.2344 15.2441C81.7344 15.7559 81.0547 16.043 80.1953 16.1055L79.8965 16.1172C78.9629 16.1172 78.2188 15.8652 77.6641 15.3613C77.1094 14.8574 76.8281 14.1641 76.8203 13.2812V7.46875H77.9336V13.2461C77.9336 13.8633 78.1035 14.3438 78.4434 14.6875C78.7832 15.0273 79.2676 15.1973 79.8965 15.1973C80.5332 15.1973 81.0195 15.0273 81.3555 14.6875C81.6953 14.3477 81.8652 13.8691 81.8652 13.252V7.46875H82.9961ZM85.627 9.66016L85.6621 10.457C86.1465 9.84766 86.7793 9.54297 87.5605 9.54297C88.9004 9.54297 89.5762 10.2988 89.5879 11.8105V16H88.5039V11.8047C88.5 11.3477 88.3945 11.0098 88.1875 10.791C87.9844 10.5723 87.666 10.4629 87.2324 10.4629C86.8809 10.4629 86.5723 10.5566 86.3066 10.7441C86.041 10.9316 85.834 11.1777 85.6855 11.4824V16H84.6016V9.66016H85.627ZM90.959 12.7773C90.959 11.8047 91.1895 11.0234 91.6504 10.4336C92.1113 9.83984 92.7148 9.54297 93.4609 9.54297C94.2031 9.54297 94.791 9.79688 95.2246 10.3047V7H96.3086V16H95.3125L95.2598 15.3203C94.8262 15.8516 94.2227 16.1172 93.4492 16.1172C92.7148 16.1172 92.1152 15.8164 91.6504 15.2148C91.1895 14.6133 90.959 13.8281 90.959 12.8594V12.7773ZM92.043 12.9004C92.043 13.6191 92.1914 14.1816 92.4883 14.5879C92.7852 14.9941 93.1953 15.1973 93.7188 15.1973C94.4062 15.1973 94.9082 14.8887 95.2246 14.2715V11.3594C94.9004 10.7617 94.4023 10.4629 93.7305 10.4629C93.1992 10.4629 92.7852 10.668 92.4883 11.0781C92.1914 11.4883 92.043 12.0957 92.043 12.9004ZM100.627 16.1172C99.7676 16.1172 99.0684 15.8359 98.5293 15.2734C97.9902 14.707 97.7207 13.9512 97.7207 13.0059V12.8066C97.7207 12.1777 97.8398 11.6172 98.0781 11.125C98.3203 10.6289 98.6562 10.2422 99.0859 9.96484C99.5195 9.68359 99.9883 9.54297 100.492 9.54297C101.316 9.54297 101.957 9.81445 102.414 10.3574C102.871 10.9004 103.1 11.6777 103.1 12.6895V13.1406H98.8047C98.8203 13.7656 99.002 14.2715 99.3496 14.6582C99.7012 15.041 100.146 15.2324 100.686 15.2324C101.068 15.2324 101.393 15.1543 101.658 14.998C101.924 14.8418 102.156 14.6348 102.355 14.377L103.018 14.8926C102.486 15.709 101.689 16.1172 100.627 16.1172ZM100.492 10.4336C100.055 10.4336 99.6875 10.5938 99.3906 10.9141C99.0938 11.2305 98.9102 11.6758 98.8398 12.25H102.016V12.168C101.984 11.6172 101.836 11.1914 101.57 10.8906C101.305 10.5859 100.945 10.4336 100.492 10.4336ZM107.424 10.6328C107.26 10.6055 107.082 10.5918 106.891 10.5918C106.18 10.5918 105.697 10.8945 105.443 11.5V16H104.359V9.66016H105.414L105.432 10.3926C105.787 9.82617 106.291 9.54297 106.943 9.54297C107.154 9.54297 107.314 9.57031 107.424 9.625V10.6328ZM110.623 14.5293L112.193 9.66016H113.301L111.027 16H110.201L107.904 9.66016H109.012L110.623 14.5293ZM115.521 16H114.438V9.66016H115.521V16ZM114.35 7.97852C114.35 7.80273 114.402 7.6543 114.508 7.5332C114.617 7.41211 114.777 7.35156 114.988 7.35156C115.199 7.35156 115.359 7.41211 115.469 7.5332C115.578 7.6543 115.633 7.80273 115.633 7.97852C115.633 8.1543 115.578 8.30078 115.469 8.41797C115.359 8.53516 115.199 8.59375 114.988 8.59375C114.777 8.59375 114.617 8.53516 114.508 8.41797C114.402 8.30078 114.35 8.1543 114.35 7.97852ZM120.953 14.3184C120.953 14.0254 120.842 13.7988 120.619 13.6387C120.4 13.4746 120.016 13.334 119.465 13.2168C118.918 13.0996 118.482 12.959 118.158 12.7949C117.838 12.6309 117.6 12.4355 117.443 12.209C117.291 11.9824 117.215 11.7129 117.215 11.4004C117.215 10.8809 117.434 10.4414 117.871 10.082C118.312 9.72266 118.875 9.54297 119.559 9.54297C120.277 9.54297 120.859 9.72852 121.305 10.0996C121.754 10.4707 121.979 10.9453 121.979 11.5234H120.889C120.889 11.2266 120.762 10.9707 120.508 10.7559C120.258 10.541 119.941 10.4336 119.559 10.4336C119.164 10.4336 118.855 10.5195 118.633 10.6914C118.41 10.8633 118.299 11.0879 118.299 11.3652C118.299 11.627 118.402 11.8242 118.609 11.957C118.816 12.0898 119.189 12.2168 119.729 12.3379C120.271 12.459 120.711 12.6035 121.047 12.7715C121.383 12.9395 121.631 13.1426 121.791 13.3809C121.955 13.6152 122.037 13.9023 122.037 14.2422C122.037 14.8086 121.811 15.2637 121.357 15.6074C120.904 15.9473 120.316 16.1172 119.594 16.1172C119.086 16.1172 118.637 16.0273 118.246 15.8477C117.855 15.668 117.549 15.418 117.326 15.0977C117.107 14.7734 116.998 14.4238 116.998 14.0488H118.082C118.102 14.4121 118.246 14.7012 118.516 14.916C118.789 15.127 119.148 15.2324 119.594 15.2324C120.004 15.2324 120.332 15.1504 120.578 14.9863C120.828 14.8184 120.953 14.5957 120.953 14.3184ZM124.475 9.66016L124.51 10.457C124.994 9.84766 125.627 9.54297 126.408 9.54297C127.748 9.54297 128.424 10.2988 128.436 11.8105V16H127.352V11.8047C127.348 11.3477 127.242 11.0098 127.035 10.791C126.832 10.5723 126.514 10.4629 126.08 10.4629C125.729 10.4629 125.42 10.5566 125.154 10.7441C124.889 10.9316 124.682 11.1777 124.533 11.4824V16H123.449V9.66016H124.475ZM131.248 16H130.164V9.66016H131.248V16ZM130.076 7.97852C130.076 7.80273 130.129 7.6543 130.234 7.5332C130.344 7.41211 130.504 7.35156 130.715 7.35156C130.926 7.35156 131.086 7.41211 131.195 7.5332C131.305 7.6543 131.359 7.80273 131.359 7.97852C131.359 8.1543 131.305 8.30078 131.195 8.41797C131.086 8.53516 130.926 8.59375 130.715 8.59375C130.504 8.59375 130.344 8.53516 130.234 8.41797C130.129 8.30078 130.076 8.1543 130.076 7.97852ZM134.014 9.66016L134.049 10.457C134.533 9.84766 135.166 9.54297 135.947 9.54297C137.287 9.54297 137.963 10.2988 137.975 11.8105V16H136.891V11.8047C136.887 11.3477 136.781 11.0098 136.574 10.791C136.371 10.5723 136.053 10.4629 135.619 10.4629C135.268 10.4629 134.959 10.5566 134.693 10.7441C134.428 10.9316 134.221 11.1777 134.072 11.4824V16H132.988V9.66016H134.014ZM139.352 12.7773C139.352 11.7891 139.58 11.0039 140.037 10.4219C140.494 9.83594 141.1 9.54297 141.854 9.54297C142.627 9.54297 143.23 9.81641 143.664 10.3633L143.717 9.66016H144.707V15.8477C144.707 16.668 144.463 17.3145 143.975 17.7871C143.49 18.2598 142.838 18.4961 142.018 18.4961C141.561 18.4961 141.113 18.3984 140.676 18.2031C140.238 18.0078 139.904 17.7402 139.674 17.4004L140.236 16.75C140.701 17.3242 141.27 17.6113 141.941 17.6113C142.469 17.6113 142.879 17.4629 143.172 17.166C143.469 16.8691 143.617 16.4512 143.617 15.9121V15.3672C143.184 15.8672 142.592 16.1172 141.842 16.1172C141.1 16.1172 140.498 15.8184 140.037 15.2207C139.58 14.623 139.352 13.8086 139.352 12.7773ZM140.441 12.9004C140.441 13.6152 140.588 14.1777 140.881 14.5879C141.174 14.9941 141.584 15.1973 142.111 15.1973C142.795 15.1973 143.297 14.8867 143.617 14.2656V11.3711C143.285 10.7656 142.787 10.4629 142.123 10.4629C141.596 10.4629 141.184 10.668 140.887 11.0781C140.59 11.4883 140.441 12.0957 140.441 12.9004ZM150.039 14.3184C150.039 14.0254 149.928 13.7988 149.705 13.6387C149.486 13.4746 149.102 13.334 148.551 13.2168C148.004 13.0996 147.568 12.959 147.244 12.7949C146.924 12.6309 146.686 12.4355 146.529 12.209C146.377 11.9824 146.301 11.7129 146.301 11.4004C146.301 10.8809 146.52 10.4414 146.957 10.082C147.398 9.72266 147.961 9.54297 148.645 9.54297C149.363 9.54297 149.945 9.72852 150.391 10.0996C150.84 10.4707 151.064 10.9453 151.064 11.5234H149.975C149.975 11.2266 149.848 10.9707 149.594 10.7559C149.344 10.541 149.027 10.4336 148.645 10.4336C148.25 10.4336 147.941 10.5195 147.719 10.6914C147.496 10.8633 147.385 11.0879 147.385 11.3652C147.385 11.627 147.488 11.8242 147.695 11.957C147.902 12.0898 148.275 12.2168 148.814 12.3379C149.357 12.459 149.797 12.6035 150.133 12.7715C150.469 12.9395 150.717 13.1426 150.877 13.3809C151.041 13.6152 151.123 13.9023 151.123 14.2422C151.123 14.8086 150.896 15.2637 150.443 15.6074C149.99 15.9473 149.402 16.1172 148.68 16.1172C148.172 16.1172 147.723 16.0273 147.332 15.8477C146.941 15.668 146.635 15.418 146.412 15.0977C146.193 14.7734 146.084 14.4238 146.084 14.0488H147.168C147.188 14.4121 147.332 14.7012 147.602 14.916C147.875 15.127 148.234 15.2324 148.68 15.2324C149.09 15.2324 149.418 15.1504 149.664 14.9863C149.914 14.8184 150.039 14.5957 150.039 14.3184ZM153.068 16V10.498H152.066V9.66016H153.068V9.00977C153.068 8.33008 153.25 7.80469 153.613 7.43359C153.977 7.0625 154.49 6.87695 155.154 6.87695C155.404 6.87695 155.652 6.91016 155.898 6.97656L155.84 7.85547C155.656 7.82031 155.461 7.80273 155.254 7.80273C154.902 7.80273 154.631 7.90625 154.439 8.11328C154.248 8.31641 154.152 8.60938 154.152 8.99219V9.66016H155.506V10.498H154.152V16H153.068ZM156.42 12.7715C156.42 12.1504 156.541 11.5918 156.783 11.0957C157.029 10.5996 157.369 10.2168 157.803 9.94727C158.24 9.67773 158.738 9.54297 159.297 9.54297C160.16 9.54297 160.857 9.8418 161.389 10.4395C161.924 11.0371 162.191 11.832 162.191 12.8242V12.9004C162.191 13.5176 162.072 14.0723 161.834 14.5645C161.6 15.0527 161.262 15.4336 160.82 15.707C160.383 15.9805 159.879 16.1172 159.309 16.1172C158.449 16.1172 157.752 15.8184 157.217 15.2207C156.686 14.623 156.42 13.832 156.42 12.8477V12.7715ZM157.51 12.9004C157.51 13.6035 157.672 14.168 157.996 14.5938C158.324 15.0195 158.762 15.2324 159.309 15.2324C159.859 15.2324 160.297 15.0176 160.621 14.5879C160.945 14.1543 161.107 13.5488 161.107 12.7715C161.107 12.0762 160.941 11.5137 160.609 11.084C160.281 10.6504 159.844 10.4336 159.297 10.4336C158.762 10.4336 158.33 10.6465 158.002 11.0723C157.674 11.498 157.51 12.1074 157.51 12.9004ZM157.369 7.9668C157.369 7.79102 157.422 7.64453 157.527 7.52734C157.637 7.40625 157.797 7.3457 158.008 7.3457C158.219 7.3457 158.379 7.40625 158.488 7.52734C158.598 7.64453 158.652 7.79102 158.652 7.9668C158.652 8.14258 158.598 8.28906 158.488 8.40625C158.379 8.52344 158.219 8.58203 158.008 8.58203C157.797 8.58203 157.637 8.52344 157.527 8.40625C157.422 8.28906 157.369 8.14258 157.369 7.9668ZM159.889 7.97852C159.889 7.80273 159.941 7.6543 160.047 7.5332C160.156 7.41211 160.316 7.35156 160.527 7.35156C160.738 7.35156 160.898 7.41211 161.008 7.5332C161.117 7.6543 161.172 7.80273 161.172 7.97852C161.172 8.1543 161.117 8.30078 161.008 8.41797C160.898 8.53516 160.738 8.59375 160.527 8.59375C160.316 8.59375 160.156 8.53516 160.047 8.41797C159.941 8.30078 159.889 8.1543 159.889 7.97852ZM166.615 10.6328C166.451 10.6055 166.273 10.5918 166.082 10.5918C165.371 10.5918 164.889 10.8945 164.635 11.5V16H163.551V9.66016H164.605L164.623 10.3926C164.979 9.82617 165.482 9.54297 166.135 9.54297C166.346 9.54297 166.506 9.57031 166.615 9.625V10.6328ZM169.814 14.5293L171.385 9.66016H172.492L170.219 16H169.393L167.096 9.66016H168.203L169.814 14.5293ZM177.355 16C177.293 15.875 177.242 15.6523 177.203 15.332C176.699 15.8555 176.098 16.1172 175.398 16.1172C174.773 16.1172 174.26 15.9414 173.857 15.5898C173.459 15.2344 173.26 14.7852 173.26 14.2422C173.26 13.582 173.51 13.0703 174.01 12.707C174.514 12.3398 175.221 12.1562 176.131 12.1562H177.186V11.6582C177.186 11.2793 177.072 10.9785 176.846 10.7559C176.619 10.5293 176.285 10.416 175.844 10.416C175.457 10.416 175.133 10.5137 174.871 10.709C174.609 10.9043 174.479 11.1406 174.479 11.418H173.389C173.389 11.1016 173.5 10.7969 173.723 10.5039C173.949 10.207 174.254 9.97266 174.637 9.80078C175.023 9.62891 175.447 9.54297 175.908 9.54297C176.639 9.54297 177.211 9.72656 177.625 10.0938C178.039 10.457 178.254 10.959 178.27 11.5996V14.5176C178.27 15.0996 178.344 15.5625 178.492 15.9062V16H177.355ZM175.557 15.1738C175.896 15.1738 176.219 15.0859 176.523 14.9102C176.828 14.7344 177.049 14.5059 177.186 14.2246V12.9238H176.336C175.008 12.9238 174.344 13.3125 174.344 14.0898C174.344 14.4297 174.457 14.6953 174.684 14.8867C174.91 15.0781 175.201 15.1738 175.557 15.1738ZM181.146 16H180.062V7H181.146V16ZM184.357 8.125V9.66016H185.541V10.498H184.357V14.4297C184.357 14.6836 184.41 14.875 184.516 15.0039C184.621 15.1289 184.801 15.1914 185.055 15.1914C185.18 15.1914 185.352 15.168 185.57 15.1211V16C185.285 16.0781 185.008 16.1172 184.738 16.1172C184.254 16.1172 183.889 15.9707 183.643 15.6777C183.396 15.3848 183.273 14.9688 183.273 14.4297V10.498H182.119V9.66016H183.273V8.125H184.357ZM187.838 9.66016L187.873 10.457C188.357 9.84766 188.99 9.54297 189.771 9.54297C191.111 9.54297 191.787 10.2988 191.799 11.8105V16H190.715V11.8047C190.711 11.3477 190.605 11.0098 190.398 10.791C190.195 10.5723 189.877 10.4629 189.443 10.4629C189.092 10.4629 188.783 10.5566 188.518 10.7441C188.252 10.9316 188.045 11.1777 187.896 11.4824V16H186.812V9.66016H187.838ZM194.611 16H193.527V9.66016H194.611V16ZM193.439 7.97852C193.439 7.80273 193.492 7.6543 193.598 7.5332C193.707 7.41211 193.867 7.35156 194.078 7.35156C194.289 7.35156 194.449 7.41211 194.559 7.5332C194.668 7.6543 194.723 7.80273 194.723 7.97852C194.723 8.1543 194.668 8.30078 194.559 8.41797C194.449 8.53516 194.289 8.59375 194.078 8.59375C193.867 8.59375 193.707 8.53516 193.598 8.41797C193.492 8.30078 193.439 8.1543 193.439 7.97852ZM197.377 9.66016L197.412 10.457C197.896 9.84766 198.529 9.54297 199.311 9.54297C200.65 9.54297 201.326 10.2988 201.338 11.8105V16H200.254V11.8047C200.25 11.3477 200.145 11.0098 199.938 10.791C199.734 10.5723 199.416 10.4629 198.982 10.4629C198.631 10.4629 198.322 10.5566 198.057 10.7441C197.791 10.9316 197.584 11.1777 197.436 11.4824V16H196.352V9.66016H197.377ZM202.715 12.7773C202.715 11.7891 202.943 11.0039 203.4 10.4219C203.857 9.83594 204.463 9.54297 205.217 9.54297C205.99 9.54297 206.594 9.81641 207.027 10.3633L207.08 9.66016H208.07V15.8477C208.07 16.668 207.826 17.3145 207.338 17.7871C206.854 18.2598 206.201 18.4961 205.381 18.4961C204.924 18.4961 204.477 18.3984 204.039 18.2031C203.602 18.0078 203.268 17.7402 203.037 17.4004L203.6 16.75C204.064 17.3242 204.633 17.6113 205.305 17.6113C205.832 17.6113 206.242 17.4629 206.535 17.166C206.832 16.8691 206.98 16.4512 206.98 15.9121V15.3672C206.547 15.8672 205.955 16.1172 205.205 16.1172C204.463 16.1172 203.861 15.8184 203.4 15.2207C202.943 14.623 202.715 13.8086 202.715 12.7773ZM203.805 12.9004C203.805 13.6152 203.951 14.1777 204.244 14.5879C204.537 14.9941 204.947 15.1973 205.475 15.1973C206.158 15.1973 206.66 14.8867 206.98 14.2656V11.3711C206.648 10.7656 206.15 10.4629 205.486 10.4629C204.959 10.4629 204.547 10.668 204.25 11.0781C203.953 11.4883 203.805 12.0957 203.805 12.9004ZM212.342 16.1172C211.482 16.1172 210.783 15.8359 210.244 15.2734C209.705 14.707 209.436 13.9512 209.436 13.0059V12.8066C209.436 12.1777 209.555 11.6172 209.793 11.125C210.035 10.6289 210.371 10.2422 210.801 9.96484C211.234 9.68359 211.703 9.54297 212.207 9.54297C213.031 9.54297 213.672 9.81445 214.129 10.3574C214.586 10.9004 214.814 11.6777 214.814 12.6895V13.1406H210.52C210.535 13.7656 210.717 14.2715 211.064 14.6582C211.416 15.041 211.861 15.2324 212.4 15.2324C212.783 15.2324 213.107 15.1543 213.373 14.998C213.639 14.8418 213.871 14.6348 214.07 14.377L214.732 14.8926C214.201 15.709 213.404 16.1172 212.342 16.1172ZM212.207 10.4336C211.77 10.4336 211.402 10.5938 211.105 10.9141C210.809 11.2305 210.625 11.6758 210.555 12.25H213.73V12.168C213.699 11.6172 213.551 11.1914 213.285 10.8906C213.02 10.5859 212.66 10.4336 212.207 10.4336ZM217.1 9.66016L217.135 10.457C217.619 9.84766 218.252 9.54297 219.033 9.54297C220.373 9.54297 221.049 10.2988 221.061 11.8105V16H219.977V11.8047C219.973 11.3477 219.867 11.0098 219.66 10.791C219.457 10.5723 219.139 10.4629 218.705 10.4629C218.354 10.4629 218.045 10.5566 217.779 10.7441C217.514 10.9316 217.307 11.1777 217.158 11.4824V16H216.074V9.66016H217.1ZM226.387 14.3184C226.387 14.0254 226.275 13.7988 226.053 13.6387C225.834 13.4746 225.449 13.334 224.898 13.2168C224.352 13.0996 223.916 12.959 223.592 12.7949C223.271 12.6309 223.033 12.4355 222.877 12.209C222.725 11.9824 222.648 11.7129 222.648 11.4004C222.648 10.8809 222.867 10.4414 223.305 10.082C223.746 9.72266 224.309 9.54297 224.992 9.54297C225.711 9.54297 226.293 9.72852 226.738 10.0996C227.188 10.4707 227.412 10.9453 227.412 11.5234H226.322C226.322 11.2266 226.195 10.9707 225.941 10.7559C225.691 10.541 225.375 10.4336 224.992 10.4336C224.598 10.4336 224.289 10.5195 224.066 10.6914C223.844 10.8633 223.732 11.0879 223.732 11.3652C223.732 11.627 223.836 11.8242 224.043 11.957C224.25 12.0898 224.623 12.2168 225.162 12.3379C225.705 12.459 226.145 12.6035 226.48 12.7715C226.816 12.9395 227.064 13.1426 227.225 13.3809C227.389 13.6152 227.471 13.9023 227.471 14.2422C227.471 14.8086 227.244 15.2637 226.791 15.6074C226.338 15.9473 225.75 16.1172 225.027 16.1172C224.52 16.1172 224.07 16.0273 223.68 15.8477C223.289 15.668 222.982 15.418 222.76 15.0977C222.541 14.7734 222.432 14.4238 222.432 14.0488H223.516C223.535 14.4121 223.68 14.7012 223.949 14.916C224.223 15.127 224.582 15.2324 225.027 15.2324C225.438 15.2324 225.766 15.1504 226.012 14.9863C226.262 14.8184 226.387 14.5957 226.387 14.3184ZM80.5117 28.3184C80.5117 28.0254 80.4004 27.7988 80.1777 27.6387C79.959 27.4746 79.5742 27.334 79.0234 27.2168C78.4766 27.0996 78.041 26.959 77.7168 26.7949C77.3965 26.6309 77.1582 26.4355 77.002 26.209C76.8496 25.9824 76.7734 25.7129 76.7734 25.4004C76.7734 24.8809 76.9922 24.4414 77.4297 24.082C77.8711 23.7227 78.4336 23.543 79.1172 23.543C79.8359 23.543 80.418 23.7285 80.8633 24.0996C81.3125 24.4707 81.5371 24.9453 81.5371 25.5234H80.4473C80.4473 25.2266 80.3203 24.9707 80.0664 24.7559C79.8164 24.541 79.5 24.4336 79.1172 24.4336C78.7227 24.4336 78.4141 24.5195 78.1914 24.6914C77.9688 24.8633 77.8574 25.0879 77.8574 25.3652C77.8574 25.627 77.9609 25.8242 78.168 25.957C78.375 26.0898 78.748 26.2168 79.2871 26.3379C79.8301 26.459 80.2695 26.6035 80.6055 26.7715C80.9414 26.9395 81.1895 27.1426 81.3496 27.3809C81.5137 27.6152 81.5957 27.9023 81.5957 28.2422C81.5957 28.8086 81.3691 29.2637 80.916 29.6074C80.4629 29.9473 79.875 30.1172 79.1523 30.1172C78.6445 30.1172 78.1953 30.0273 77.8047 29.8477C77.4141 29.668 77.1074 29.418 76.8848 29.0977C76.666 28.7734 76.5566 28.4238 76.5566 28.0488H77.6406C77.6602 28.4121 77.8047 28.7012 78.0742 28.916C78.3477 29.127 78.707 29.2324 79.1523 29.2324C79.5625 29.2324 79.8906 29.1504 80.1367 28.9863C80.3867 28.8184 80.5117 28.5957 80.5117 28.3184ZM84.4785 22.125V23.6602H85.6621V24.498H84.4785V28.4297C84.4785 28.6836 84.5312 28.875 84.6367 29.0039C84.7422 29.1289 84.9219 29.1914 85.1758 29.1914C85.3008 29.1914 85.4727 29.168 85.6914 29.1211V30C85.4062 30.0781 85.1289 30.1172 84.8594 30.1172C84.375 30.1172 84.0098 29.9707 83.7637 29.6777C83.5176 29.3848 83.3945 28.9688 83.3945 28.4297V24.498H82.2402V23.6602H83.3945V22.125H84.4785ZM89.0078 28.4121L90.4844 23.6602H91.6445L89.0957 30.9785C88.7012 32.0332 88.0742 32.5605 87.2148 32.5605L87.0098 32.543L86.6055 32.4668V31.5879L86.8984 31.6113C87.2656 31.6113 87.5508 31.5371 87.7539 31.3887C87.9609 31.2402 88.1309 30.9688 88.2637 30.5742L88.5039 29.9297L86.2422 23.6602H87.4258L89.0078 28.4121ZM95.6816 24.6328C95.5176 24.6055 95.3398 24.5918 95.1484 24.5918C94.4375 24.5918 93.9551 24.8945 93.7012 25.5V30H92.6172V23.6602H93.6719L93.6895 24.3926C94.0449 23.8262 94.5488 23.543 95.2012 23.543C95.4121 23.543 95.5723 23.5703 95.6816 23.625V24.6328ZM97.709 23.6602L97.7441 24.457C98.2285 23.8477 98.8613 23.543 99.6426 23.543C100.982 23.543 101.658 24.2988 101.67 25.8105V30H100.586V25.8047C100.582 25.3477 100.477 25.0098 100.27 24.791C100.066 24.5723 99.748 24.4629 99.3145 24.4629C98.9629 24.4629 98.6543 24.5566 98.3887 24.7441C98.123 24.9316 97.916 25.1777 97.7676 25.4824V30H96.6836V23.6602H97.709ZM104.482 30H103.398V23.6602H104.482V30ZM103.311 21.9785C103.311 21.8027 103.363 21.6543 103.469 21.5332C103.578 21.4121 103.738 21.3516 103.949 21.3516C104.16 21.3516 104.32 21.4121 104.43 21.5332C104.539 21.6543 104.594 21.8027 104.594 21.9785C104.594 22.1543 104.539 22.3008 104.43 22.418C104.32 22.5352 104.16 22.5938 103.949 22.5938C103.738 22.5938 103.578 22.5352 103.469 22.418C103.363 22.3008 103.311 22.1543 103.311 21.9785ZM107.248 23.6602L107.283 24.457C107.768 23.8477 108.4 23.543 109.182 23.543C110.521 23.543 111.197 24.2988 111.209 25.8105V30H110.125V25.8047C110.121 25.3477 110.016 25.0098 109.809 24.791C109.605 24.5723 109.287 24.4629 108.854 24.4629C108.502 24.4629 108.193 24.5566 107.928 24.7441C107.662 24.9316 107.455 25.1777 107.307 25.4824V30H106.223V23.6602H107.248ZM112.586 26.7773C112.586 25.7891 112.814 25.0039 113.271 24.4219C113.729 23.8359 114.334 23.543 115.088 23.543C115.861 23.543 116.465 23.8164 116.898 24.3633L116.951 23.6602H117.941V29.8477C117.941 30.668 117.697 31.3145 117.209 31.7871C116.725 32.2598 116.072 32.4961 115.252 32.4961C114.795 32.4961 114.348 32.3984 113.91 32.2031C113.473 32.0078 113.139 31.7402 112.908 31.4004L113.471 30.75C113.936 31.3242 114.504 31.6113 115.176 31.6113C115.703 31.6113 116.113 31.4629 116.406 31.166C116.703 30.8691 116.852 30.4512 116.852 29.9121V29.3672C116.418 29.8672 115.826 30.1172 115.076 30.1172C114.334 30.1172 113.732 29.8184 113.271 29.2207C112.814 28.623 112.586 27.8086 112.586 26.7773ZM113.676 26.9004C113.676 27.6152 113.822 28.1777 114.115 28.5879C114.408 28.9941 114.818 29.1973 115.346 29.1973C116.029 29.1973 116.531 28.8867 116.852 28.2656V25.3711C116.52 24.7656 116.021 24.4629 115.357 24.4629C114.83 24.4629 114.418 24.668 114.121 25.0781C113.824 25.4883 113.676 26.0957 113.676 26.9004ZM123.273 28.3184C123.273 28.0254 123.162 27.7988 122.939 27.6387C122.721 27.4746 122.336 27.334 121.785 27.2168C121.238 27.0996 120.803 26.959 120.479 26.7949C120.158 26.6309 119.92 26.4355 119.764 26.209C119.611 25.9824 119.535 25.7129 119.535 25.4004C119.535 24.8809 119.754 24.4414 120.191 24.082C120.633 23.7227 121.195 23.543 121.879 23.543C122.598 23.543 123.18 23.7285 123.625 24.0996C124.074 24.4707 124.299 24.9453 124.299 25.5234H123.209C123.209 25.2266 123.082 24.9707 122.828 24.7559C122.578 24.541 122.262 24.4336 121.879 24.4336C121.484 24.4336 121.176 24.5195 120.953 24.6914C120.73 24.8633 120.619 25.0879 120.619 25.3652C120.619 25.627 120.723 25.8242 120.93 25.957C121.137 26.0898 121.51 26.2168 122.049 26.3379C122.592 26.459 123.031 26.6035 123.367 26.7715C123.703 26.9395 123.951 27.1426 124.111 27.3809C124.275 27.6152 124.357 27.9023 124.357 28.2422C124.357 28.8086 124.131 29.2637 123.678 29.6074C123.225 29.9473 122.637 30.1172 121.914 30.1172C121.406 30.1172 120.957 30.0273 120.566 29.8477C120.176 29.668 119.869 29.418 119.646 29.0977C119.428 28.7734 119.318 28.4238 119.318 28.0488H120.402C120.422 28.4121 120.566 28.7012 120.836 28.916C121.109 29.127 121.469 29.2324 121.914 29.2324C122.324 29.2324 122.652 29.1504 122.898 28.9863C123.148 28.8184 123.273 28.5957 123.273 28.3184ZM128.025 26.8184H125.166V25.9336H128.025V26.8184ZM131.775 26.7715C131.775 26.1504 131.896 25.5918 132.139 25.0957C132.385 24.5996 132.725 24.2168 133.158 23.9473C133.596 23.6777 134.094 23.543 134.652 23.543C135.516 23.543 136.213 23.8418 136.744 24.4395C137.279 25.0371 137.547 25.832 137.547 26.8242V26.9004C137.547 27.5176 137.428 28.0723 137.189 28.5645C136.955 29.0527 136.617 29.4336 136.176 29.707C135.738 29.9805 135.234 30.1172 134.664 30.1172C133.805 30.1172 133.107 29.8184 132.572 29.2207C132.041 28.623 131.775 27.832 131.775 26.8477V26.7715ZM132.865 26.9004C132.865 27.6035 133.027 28.168 133.352 28.5938C133.68 29.0195 134.117 29.2324 134.664 29.2324C135.215 29.2324 135.652 29.0176 135.977 28.5879C136.301 28.1543 136.463 27.5488 136.463 26.7715C136.463 26.0762 136.297 25.5137 135.965 25.084C135.637 24.6504 135.199 24.4336 134.652 24.4336C134.117 24.4336 133.686 24.6465 133.357 25.0723C133.029 25.498 132.865 26.1074 132.865 26.9004ZM141.449 29.2324C141.836 29.2324 142.174 29.1152 142.463 28.8809C142.752 28.6465 142.912 28.3535 142.943 28.002H143.969C143.949 28.3652 143.824 28.7109 143.594 29.0391C143.363 29.3672 143.055 29.6289 142.668 29.8242C142.285 30.0195 141.879 30.1172 141.449 30.1172C140.586 30.1172 139.898 29.8301 139.387 29.2559C138.879 28.6777 138.625 27.8887 138.625 26.8887V26.707C138.625 26.0898 138.738 25.541 138.965 25.0605C139.191 24.5801 139.516 24.207 139.938 23.9414C140.363 23.6758 140.865 23.543 141.443 23.543C142.154 23.543 142.744 23.7559 143.213 24.1816C143.686 24.6074 143.938 25.1602 143.969 25.8398H142.943C142.912 25.4297 142.756 25.0938 142.475 24.832C142.197 24.5664 141.854 24.4336 141.443 24.4336C140.893 24.4336 140.465 24.6328 140.16 25.0312C139.859 25.4258 139.709 25.998 139.709 26.748V26.9531C139.709 27.6836 139.859 28.2461 140.16 28.6406C140.461 29.0352 140.891 29.2324 141.449 29.2324ZM146.271 24.4277C146.752 23.8379 147.377 23.543 148.146 23.543C149.486 23.543 150.162 24.2988 150.174 25.8105V30H149.09V25.8047C149.086 25.3477 148.98 25.0098 148.773 24.791C148.57 24.5723 148.252 24.4629 147.818 24.4629C147.467 24.4629 147.158 24.5566 146.893 24.7441C146.627 24.9316 146.42 25.1777 146.271 25.4824V30H145.188V21H146.271V24.4277ZM157.838 24.6328C157.674 24.6055 157.496 24.5918 157.305 24.5918C156.594 24.5918 156.111 24.8945 155.857 25.5V30H154.773V23.6602H155.828L155.846 24.3926C156.201 23.8262 156.705 23.543 157.357 23.543C157.568 23.543 157.729 23.5703 157.838 23.625V24.6328ZM161.354 30.1172C160.494 30.1172 159.795 29.8359 159.256 29.2734C158.717 28.707 158.447 27.9512 158.447 27.0059V26.8066C158.447 26.1777 158.566 25.6172 158.805 25.125C159.047 24.6289 159.383 24.2422 159.812 23.9648C160.246 23.6836 160.715 23.543 161.219 23.543C162.043 23.543 162.684 23.8145 163.141 24.3574C163.598 24.9004 163.826 25.6777 163.826 26.6895V27.1406H159.531C159.547 27.7656 159.729 28.2715 160.076 28.6582C160.428 29.041 160.873 29.2324 161.412 29.2324C161.795 29.2324 162.119 29.1543 162.385 28.998C162.65 28.8418 162.883 28.6348 163.082 28.377L163.744 28.8926C163.213 29.709 162.416 30.1172 161.354 30.1172ZM161.219 24.4336C160.781 24.4336 160.414 24.5938 160.117 24.9141C159.82 25.2305 159.637 25.6758 159.566 26.25H162.742V26.168C162.711 25.6172 162.562 25.1914 162.297 24.8906C162.031 24.5859 161.672 24.4336 161.219 24.4336ZM164.828 26.7773C164.828 25.7891 165.057 25.0039 165.514 24.4219C165.971 23.8359 166.576 23.543 167.33 23.543C168.104 23.543 168.707 23.8164 169.141 24.3633L169.193 23.6602H170.184V29.8477C170.184 30.668 169.939 31.3145 169.451 31.7871C168.967 32.2598 168.314 32.4961 167.494 32.4961C167.037 32.4961 166.59 32.3984 166.152 32.2031C165.715 32.0078 165.381 31.7402 165.15 31.4004L165.713 30.75C166.178 31.3242 166.746 31.6113 167.418 31.6113C167.945 31.6113 168.355 31.4629 168.648 31.166C168.945 30.8691 169.094 30.4512 169.094 29.9121V29.3672C168.66 29.8672 168.068 30.1172 167.318 30.1172C166.576 30.1172 165.975 29.8184 165.514 29.2207C165.057 28.623 164.828 27.8086 164.828 26.7773ZM165.918 26.9004C165.918 27.6152 166.064 28.1777 166.357 28.5879C166.65 28.9941 167.061 29.1973 167.588 29.1973C168.271 29.1973 168.773 28.8867 169.094 28.2656V25.3711C168.762 24.7656 168.264 24.4629 167.6 24.4629C167.072 24.4629 166.66 24.668 166.363 25.0781C166.066 25.4883 165.918 26.0957 165.918 26.9004ZM173.002 30H171.918V21H173.002V30ZM177.373 30.1172C176.514 30.1172 175.814 29.8359 175.275 29.2734C174.736 28.707 174.467 27.9512 174.467 27.0059V26.8066C174.467 26.1777 174.586 25.6172 174.824 25.125C175.066 24.6289 175.402 24.2422 175.832 23.9648C176.266 23.6836 176.734 23.543 177.238 23.543C178.062 23.543 178.703 23.8145 179.16 24.3574C179.617 24.9004 179.846 25.6777 179.846 26.6895V27.1406H175.551C175.566 27.7656 175.748 28.2715 176.096 28.6582C176.447 29.041 176.893 29.2324 177.432 29.2324C177.814 29.2324 178.139 29.1543 178.404 28.998C178.67 28.8418 178.902 28.6348 179.102 28.377L179.764 28.8926C179.232 29.709 178.436 30.1172 177.373 30.1172ZM177.238 24.4336C176.801 24.4336 176.434 24.5938 176.137 24.9141C175.84 25.2305 175.656 25.6758 175.586 26.25H178.762V26.168C178.73 25.6172 178.582 25.1914 178.316 24.8906C178.051 24.5859 177.691 24.4336 177.238 24.4336ZM184.17 24.6328C184.006 24.6055 183.828 24.5918 183.637 24.5918C182.926 24.5918 182.443 24.8945 182.189 25.5V30H181.105V23.6602H182.16L182.178 24.3926C182.533 23.8262 183.037 23.543 183.689 23.543C183.9 23.543 184.061 23.5703 184.17 23.625V24.6328ZM186.35 30H185.266V23.6602H186.35V30ZM185.178 21.9785C185.178 21.8027 185.23 21.6543 185.336 21.5332C185.445 21.4121 185.605 21.3516 185.816 21.3516C186.027 21.3516 186.188 21.4121 186.297 21.5332C186.406 21.6543 186.461 21.8027 186.461 21.9785C186.461 22.1543 186.406 22.3008 186.297 22.418C186.188 22.5352 186.027 22.5938 185.816 22.5938C185.605 22.5938 185.445 22.5352 185.336 22.418C185.23 22.3008 185.178 22.1543 185.178 21.9785ZM189.115 23.6602L189.15 24.457C189.635 23.8477 190.268 23.543 191.049 23.543C192.389 23.543 193.064 24.2988 193.076 25.8105V30H191.992V25.8047C191.988 25.3477 191.883 25.0098 191.676 24.791C191.473 24.5723 191.154 24.4629 190.721 24.4629C190.369 24.4629 190.061 24.5566 189.795 24.7441C189.529 24.9316 189.322 25.1777 189.174 25.4824V30H188.09V23.6602H189.115ZM194.453 26.7773C194.453 25.7891 194.682 25.0039 195.139 24.4219C195.596 23.8359 196.201 23.543 196.955 23.543C197.729 23.543 198.332 23.8164 198.766 24.3633L198.818 23.6602H199.809V29.8477C199.809 30.668 199.564 31.3145 199.076 31.7871C198.592 32.2598 197.939 32.4961 197.119 32.4961C196.662 32.4961 196.215 32.3984 195.777 32.2031C195.34 32.0078 195.006 31.7402 194.775 31.4004L195.338 30.75C195.803 31.3242 196.371 31.6113 197.043 31.6113C197.57 31.6113 197.98 31.4629 198.273 31.166C198.57 30.8691 198.719 30.4512 198.719 29.9121V29.3672C198.285 29.8672 197.693 30.1172 196.943 30.1172C196.201 30.1172 195.6 29.8184 195.139 29.2207C194.682 28.623 194.453 27.8086 194.453 26.7773ZM195.543 26.9004C195.543 27.6152 195.689 28.1777 195.982 28.5879C196.275 28.9941 196.686 29.1973 197.213 29.1973C197.896 29.1973 198.398 28.8867 198.719 28.2656V25.3711C198.387 24.7656 197.889 24.4629 197.225 24.4629C196.697 24.4629 196.285 24.668 195.988 25.0781C195.691 25.4883 195.543 26.0957 195.543 26.9004ZM205.141 28.3184C205.141 28.0254 205.029 27.7988 204.807 27.6387C204.588 27.4746 204.203 27.334 203.652 27.2168C203.105 27.0996 202.67 26.959 202.346 26.7949C202.025 26.6309 201.787 26.4355 201.631 26.209C201.479 25.9824 201.402 25.7129 201.402 25.4004C201.402 24.8809 201.621 24.4414 202.059 24.082C202.5 23.7227 203.062 23.543 203.746 23.543C204.465 23.543 205.047 23.7285 205.492 24.0996C205.941 24.4707 206.166 24.9453 206.166 25.5234H205.076C205.076 25.2266 204.949 24.9707 204.695 24.7559C204.445 24.541 204.129 24.4336 203.746 24.4336C203.352 24.4336 203.043 24.5195 202.82 24.6914C202.598 24.8633 202.486 25.0879 202.486 25.3652C202.486 25.627 202.59 25.8242 202.797 25.957C203.004 26.0898 203.377 26.2168 203.916 26.3379C204.459 26.459 204.898 26.6035 205.234 26.7715C205.57 26.9395 205.818 27.1426 205.979 27.3809C206.143 27.6152 206.225 27.9023 206.225 28.2422C206.225 28.8086 205.998 29.2637 205.545 29.6074C205.092 29.9473 204.504 30.1172 203.781 30.1172C203.273 30.1172 202.824 30.0273 202.434 29.8477C202.043 29.668 201.736 29.418 201.514 29.0977C201.295 28.7734 201.186 28.4238 201.186 28.0488H202.27C202.289 28.4121 202.434 28.7012 202.703 28.916C202.977 29.127 203.336 29.2324 203.781 29.2324C204.191 29.2324 204.52 29.1504 204.766 28.9863C205.016 28.8184 205.141 28.5957 205.141 28.3184ZM209.107 22.125V23.6602H210.291V24.498H209.107V28.4297C209.107 28.6836 209.16 28.875 209.266 29.0039C209.371 29.1289 209.551 29.1914 209.805 29.1914C209.93 29.1914 210.102 29.168 210.32 29.1211V30C210.035 30.0781 209.758 30.1172 209.488 30.1172C209.004 30.1172 208.639 29.9707 208.393 29.6777C208.146 29.3848 208.023 28.9688 208.023 28.4297V24.498H206.869V23.6602H208.023V22.125H209.107ZM212.682 23.6602V30.7324C212.682 31.9512 212.129 32.5605 211.023 32.5605C210.785 32.5605 210.564 32.5254 210.361 32.4551V31.5879C210.486 31.6191 210.65 31.6348 210.854 31.6348C211.096 31.6348 211.279 31.5684 211.404 31.4355C211.533 31.3066 211.598 31.0801 211.598 30.7559V23.6602H212.682ZM211.486 21.9785C211.486 21.8066 211.539 21.6602 211.645 21.5391C211.754 21.4141 211.912 21.3516 212.119 21.3516C212.33 21.3516 212.49 21.4121 212.6 21.5332C212.709 21.6543 212.764 21.8027 212.764 21.9785C212.764 22.1543 212.709 22.3008 212.6 22.418C212.49 22.5352 212.33 22.5938 212.119 22.5938C211.908 22.5938 211.75 22.5352 211.645 22.418C211.539 22.3008 211.486 22.1543 211.486 21.9785ZM218.348 30C218.285 29.875 218.234 29.6523 218.195 29.332C217.691 29.8555 217.09 30.1172 216.391 30.1172C215.766 30.1172 215.252 29.9414 214.85 29.5898C214.451 29.2344 214.252 28.7852 214.252 28.2422C214.252 27.582 214.502 27.0703 215.002 26.707C215.506 26.3398 216.213 26.1562 217.123 26.1562H218.178V25.6582C218.178 25.2793 218.064 24.9785 217.838 24.7559C217.611 24.5293 217.277 24.416 216.836 24.416C216.449 24.416 216.125 24.5137 215.863 24.709C215.602 24.9043 215.471 25.1406 215.471 25.418H214.381C214.381 25.1016 214.492 24.7969 214.715 24.5039C214.941 24.207 215.246 23.9727 215.629 23.8008C216.016 23.6289 216.439 23.543 216.9 23.543C217.631 23.543 218.203 23.7266 218.617 24.0938C219.031 24.457 219.246 24.959 219.262 25.5996V28.5176C219.262 29.0996 219.336 29.5625 219.484 29.9062V30H218.348ZM216.549 29.1738C216.889 29.1738 217.211 29.0859 217.516 28.9102C217.82 28.7344 218.041 28.5059 218.178 28.2246V26.9238H217.328C216 26.9238 215.336 27.3125 215.336 28.0898C215.336 28.4297 215.449 28.6953 215.676 28.8867C215.902 29.0781 216.193 29.1738 216.549 29.1738ZM215.131 21.9668C215.131 21.791 215.184 21.6445 215.289 21.5273C215.398 21.4062 215.559 21.3457 215.77 21.3457C215.98 21.3457 216.141 21.4062 216.25 21.5273C216.359 21.6445 216.414 21.791 216.414 21.9668C216.414 22.1426 216.359 22.2891 216.25 22.4062C216.141 22.5234 215.98 22.582 215.77 22.582C215.559 22.582 215.398 22.5234 215.289 22.4062C215.184 22.2891 215.131 22.1426 215.131 21.9668ZM217.65 21.9785C217.65 21.8027 217.703 21.6543 217.809 21.5332C217.918 21.4121 218.078 21.3516 218.289 21.3516C218.5 21.3516 218.66 21.4121 218.77 21.5332C218.879 21.6543 218.934 21.8027 218.934 21.9785C218.934 22.1543 218.879 22.3008 218.77 22.418C218.66 22.5352 218.5 22.5938 218.289 22.5938C218.078 22.5938 217.918 22.5352 217.809 22.418C217.703 22.3008 217.65 22.1543 217.65 21.9785ZM221.986 23.6602L222.021 24.457C222.506 23.8477 223.139 23.543 223.92 23.543C225.26 23.543 225.936 24.2988 225.947 25.8105V30H224.863V25.8047C224.859 25.3477 224.754 25.0098 224.547 24.791C224.344 24.5723 224.025 24.4629 223.592 24.4629C223.24 24.4629 222.932 24.5566 222.666 24.7441C222.4 24.9316 222.193 25.1777 222.045 25.4824V30H220.961V23.6602H221.986ZM231.273 28.3184C231.273 28.0254 231.162 27.7988 230.939 27.6387C230.721 27.4746 230.336 27.334 229.785 27.2168C229.238 27.0996 228.803 26.959 228.479 26.7949C228.158 26.6309 227.92 26.4355 227.764 26.209C227.611 25.9824 227.535 25.7129 227.535 25.4004C227.535 24.8809 227.754 24.4414 228.191 24.082C228.633 23.7227 229.195 23.543 229.879 23.543C230.598 23.543 231.18 23.7285 231.625 24.0996C232.074 24.4707 232.299 24.9453 232.299 25.5234H231.209C231.209 25.2266 231.082 24.9707 230.828 24.7559C230.578 24.541 230.262 24.4336 229.879 24.4336C229.484 24.4336 229.176 24.5195 228.953 24.6914C228.73 24.8633 228.619 25.0879 228.619 25.3652C228.619 25.627 228.723 25.8242 228.93 25.957C229.137 26.0898 229.51 26.2168 230.049 26.3379C230.592 26.459 231.031 26.6035 231.367 26.7715C231.703 26.9395 231.951 27.1426 232.111 27.3809C232.275 27.6152 232.357 27.9023 232.357 28.2422C232.357 28.8086 232.131 29.2637 231.678 29.6074C231.225 29.9473 230.637 30.1172 229.914 30.1172C229.406 30.1172 228.957 30.0273 228.566 29.8477C228.176 29.668 227.869 29.418 227.646 29.0977C227.428 28.7734 227.318 28.4238 227.318 28.0488H228.402C228.422 28.4121 228.566 28.7012 228.836 28.916C229.109 29.127 229.469 29.2324 229.914 29.2324C230.324 29.2324 230.652 29.1504 230.898 28.9863C231.148 28.8184 231.273 28.5957 231.273 28.3184ZM235.24 22.125V23.6602H236.424V24.498H235.24V28.4297C235.24 28.6836 235.293 28.875 235.398 29.0039C235.504 29.1289 235.684 29.1914 235.938 29.1914C236.062 29.1914 236.234 29.168 236.453 29.1211V30C236.168 30.0781 235.891 30.1172 235.621 30.1172C235.137 30.1172 234.771 29.9707 234.525 29.6777C234.279 29.3848 234.156 28.9688 234.156 28.4297V24.498H233.002V23.6602H234.156V22.125H235.24Z" fill="white"/>
</svg>
