<svg width="207" height="29" viewBox="0 0 207 29" fill="none" xmlns="http://www.w3.org/2000/svg">
<path d="M1.053 14.55C1.053 13.146 1.251 11.85 1.647 10.662C2.043 9.456 2.628 8.421 3.402 7.557C4.176 6.675 5.13 5.991 6.264 5.505C7.398 5.019 8.703 4.776 10.179 4.776C11.655 4.776 12.96 5.019 14.094 5.505C15.228 5.991 16.173 6.675 16.929 7.557C17.703 8.421 18.288 9.456 18.684 10.662C19.08 11.85 19.278 13.146 19.278 14.55C19.278 15.954 19.08 17.259 18.684 18.465C18.288 19.653 17.703 20.688 16.929 21.57C16.173 22.434 15.228 23.109 14.094 23.595C12.96 24.081 11.655 24.324 10.179 24.324C8.703 24.324 7.398 24.081 6.264 23.595C5.13 23.109 4.176 22.434 3.402 21.57C2.628 20.688 2.043 19.653 1.647 18.465C1.251 17.259 1.053 15.954 1.053 14.55ZM5.643 14.55C5.643 15.702 5.733 16.773 5.913 17.763C6.093 18.735 6.372 19.581 6.75 20.301C7.146 21.003 7.641 21.561 8.235 21.975C8.847 22.371 9.576 22.569 10.422 22.569C11.196 22.569 11.853 22.371 12.393 21.975C12.933 21.561 13.374 21.003 13.716 20.301C14.058 19.581 14.301 18.735 14.445 17.763C14.607 16.773 14.688 15.702 14.688 14.55C14.688 13.398 14.598 12.336 14.418 11.364C14.256 10.374 13.986 9.528 13.608 8.826C13.248 8.106 12.762 7.548 12.15 7.152C11.556 6.738 10.827 6.531 9.963 6.531C9.135 6.531 8.442 6.738 7.884 7.152C7.326 7.548 6.876 8.106 6.534 8.826C6.21 9.528 5.976 10.374 5.832 11.364C5.706 12.336 5.643 13.398 5.643 14.55ZM29.5895 24H21.1655V22.974C21.8855 22.578 22.6145 22.317 23.3525 22.191V6.909C22.9925 6.855 22.6145 6.756 22.2185 6.612C21.8225 6.468 21.4715 6.306 21.1655 6.126V5.1H29.5895V6.126C29.2655 6.324 28.9055 6.495 28.5095 6.639C28.1315 6.765 27.7625 6.855 27.4025 6.909V22.191C27.7625 22.263 28.1315 22.362 28.5095 22.488C28.9055 22.614 29.2655 22.776 29.5895 22.974V24ZM45.6294 6.909C45.1974 6.819 44.7834 6.702 44.3874 6.558C44.0094 6.414 43.6674 6.27 43.3614 6.126V5.1H50.2194V6.126C50.0034 6.27 49.7154 6.414 49.3554 6.558C49.0134 6.702 48.6534 6.819 48.2754 6.909L42.0654 24L39.3924 24.324L32.4264 6.909C32.0664 6.819 31.7064 6.711 31.3464 6.585C30.9864 6.441 30.6714 6.288 30.4014 6.126V5.1H39.3924V6.126C39.0864 6.27 38.7444 6.414 38.3664 6.558C37.9884 6.702 37.5924 6.819 37.1784 6.909L40.9584 17.547L41.5794 20.085H41.6334L42.2274 17.493L45.6294 6.909ZM53.3917 24H46.7227V22.974C47.0107 22.794 47.3167 22.641 47.6407 22.515C47.9827 22.371 48.3157 22.263 48.6397 22.191L55.6057 4.776H57.6037L64.3807 22.191C64.7407 22.263 65.1007 22.371 65.4607 22.515C65.8207 22.641 66.1357 22.794 66.4057 22.974V24H57.9547V22.974C58.2967 22.812 58.6657 22.659 59.0617 22.515C59.4577 22.371 59.8357 22.263 60.1957 22.191L58.6297 17.898H52.6357L51.0427 22.191C51.8707 22.299 52.6537 22.56 53.3917 22.974V24ZM53.2837 16.143H58.0627L56.3077 10.986L55.7947 8.664H55.7407L55.1467 11.04L53.2837 16.143Z" fill="white"/>
<path d="M83.5527 7.00977C83.5527 7.8457 83.4121 8.57617 83.1309 9.20117C82.8496 9.82227 82.4512 10.2969 81.9355 10.625C81.4199 10.9531 80.8184 11.1172 80.1309 11.1172C79.459 11.1172 78.8633 10.9531 78.3438 10.625C77.8242 10.293 77.4199 9.82227 77.1309 9.21289C76.8457 8.59961 76.6992 7.89062 76.6914 7.08594V6.4707C76.6914 5.65039 76.834 4.92578 77.1191 4.29688C77.4043 3.66797 77.8066 3.1875 78.3262 2.85547C78.8496 2.51953 79.4473 2.35156 80.1191 2.35156C80.8027 2.35156 81.4043 2.51758 81.9238 2.84961C82.4473 3.17773 82.8496 3.65625 83.1309 4.28516C83.4121 4.91016 83.5527 5.63867 83.5527 6.4707V7.00977ZM82.4336 6.45898C82.4336 5.44727 82.2305 4.67188 81.8242 4.13281C81.418 3.58984 80.8496 3.31836 80.1191 3.31836C79.4082 3.31836 78.8477 3.58984 78.4375 4.13281C78.0312 4.67188 77.8223 5.42188 77.8105 6.38281V7.00977C77.8105 7.99023 78.0156 8.76172 78.4258 9.32422C78.8398 9.88281 79.4082 10.1621 80.1309 10.1621C80.8574 10.1621 81.4199 9.89844 81.8184 9.37109C82.2168 8.83984 82.4219 8.08008 82.4336 7.0918V6.45898ZM90.4258 7.90039C90.4258 8.86523 90.2051 9.64258 89.7637 10.2324C89.3223 10.8223 88.7246 11.1172 87.9707 11.1172C87.2012 11.1172 86.5957 10.873 86.1543 10.3848V13.4375H85.0703V4.66016H86.0605L86.1133 5.36328C86.5547 4.81641 87.168 4.54297 87.9531 4.54297C88.7148 4.54297 89.3164 4.83008 89.7578 5.4043C90.2031 5.97852 90.4258 6.77734 90.4258 7.80078V7.90039ZM89.3418 7.77734C89.3418 7.0625 89.1895 6.49805 88.8848 6.08398C88.5801 5.66992 88.1621 5.46289 87.6309 5.46289C86.9746 5.46289 86.4824 5.75391 86.1543 6.33594V9.36523C86.4785 9.94336 86.9746 10.2324 87.6426 10.2324C88.1621 10.2324 88.5742 10.0273 88.8789 9.61719C89.1875 9.20312 89.3418 8.58984 89.3418 7.77734ZM94.4395 11.1172C93.5801 11.1172 92.8809 10.8359 92.3418 10.2734C91.8027 9.70703 91.5332 8.95117 91.5332 8.00586V7.80664C91.5332 7.17773 91.6523 6.61719 91.8906 6.125C92.1328 5.62891 92.4688 5.24219 92.8984 4.96484C93.332 4.68359 93.8008 4.54297 94.3047 4.54297C95.1289 4.54297 95.7695 4.81445 96.2266 5.35742C96.6836 5.90039 96.9121 6.67773 96.9121 7.68945V8.14062H92.6172C92.6328 8.76562 92.8145 9.27148 93.1621 9.6582C93.5137 10.041 93.959 10.2324 94.498 10.2324C94.8809 10.2324 95.2051 10.1543 95.4707 9.99805C95.7363 9.8418 95.9688 9.63477 96.168 9.37695L96.8301 9.89258C96.2988 10.709 95.502 11.1172 94.4395 11.1172ZM94.3047 5.43359C93.8672 5.43359 93.5 5.59375 93.2031 5.91406C92.9062 6.23047 92.7227 6.67578 92.6523 7.25H95.8281V7.16797C95.7969 6.61719 95.6484 6.19141 95.3828 5.89062C95.1172 5.58594 94.7578 5.43359 94.3047 5.43359ZM99.6426 3.125V4.66016H100.826V5.49805H99.6426V9.42969C99.6426 9.68359 99.6953 9.875 99.8008 10.0039C99.9062 10.1289 100.086 10.1914 100.34 10.1914C100.465 10.1914 100.637 10.168 100.855 10.1211V11C100.57 11.0781 100.293 11.1172 100.023 11.1172C99.5391 11.1172 99.1738 10.9707 98.9277 10.6777C98.6816 10.3848 98.5586 9.96875 98.5586 9.42969V5.49805H97.4043V4.66016H98.5586V3.125H99.6426ZM106.012 10.373C105.59 10.8691 104.971 11.1172 104.154 11.1172C103.479 11.1172 102.963 10.9219 102.607 10.5312C102.256 10.1367 102.078 9.55469 102.074 8.78516V4.66016H103.158V8.75586C103.158 9.7168 103.549 10.1973 104.33 10.1973C105.158 10.1973 105.709 9.88867 105.982 9.27148V4.66016H107.066V11H106.035L106.012 10.373ZM112.41 9.31836C112.41 9.02539 112.299 8.79883 112.076 8.63867C111.857 8.47461 111.473 8.33398 110.922 8.2168C110.375 8.09961 109.939 7.95898 109.615 7.79492C109.295 7.63086 109.057 7.43555 108.9 7.20898C108.748 6.98242 108.672 6.71289 108.672 6.40039C108.672 5.88086 108.891 5.44141 109.328 5.08203C109.77 4.72266 110.332 4.54297 111.016 4.54297C111.734 4.54297 112.316 4.72852 112.762 5.09961C113.211 5.4707 113.436 5.94531 113.436 6.52344H112.346C112.346 6.22656 112.219 5.9707 111.965 5.75586C111.715 5.54102 111.398 5.43359 111.016 5.43359C110.621 5.43359 110.312 5.51953 110.09 5.69141C109.867 5.86328 109.756 6.08789 109.756 6.36523C109.756 6.62695 109.859 6.82422 110.066 6.95703C110.273 7.08984 110.646 7.2168 111.186 7.33789C111.729 7.45898 112.168 7.60352 112.504 7.77148C112.84 7.93945 113.088 8.14258 113.248 8.38086C113.412 8.61523 113.494 8.90234 113.494 9.24219C113.494 9.80859 113.268 10.2637 112.814 10.6074C112.361 10.9473 111.773 11.1172 111.051 11.1172C110.543 11.1172 110.094 11.0273 109.703 10.8477C109.312 10.668 109.006 10.418 108.783 10.0977C108.564 9.77344 108.455 9.42383 108.455 9.04883H109.539C109.559 9.41211 109.703 9.70117 109.973 9.91602C110.246 10.127 110.605 10.2324 111.051 10.2324C111.461 10.2324 111.789 10.1504 112.035 9.98633C112.285 9.81836 112.41 9.5957 112.41 9.31836ZM115.99 5.42773C116.471 4.83789 117.096 4.54297 117.865 4.54297C119.205 4.54297 119.881 5.29883 119.893 6.81055V11H118.809V6.80469C118.805 6.34766 118.699 6.00977 118.492 5.79102C118.289 5.57227 117.971 5.46289 117.537 5.46289C117.186 5.46289 116.877 5.55664 116.611 5.74414C116.346 5.93164 116.139 6.17773 115.99 6.48242V11H114.906V2H115.99V5.42773ZM125.43 11C125.367 10.875 125.316 10.6523 125.277 10.332C124.773 10.8555 124.172 11.1172 123.473 11.1172C122.848 11.1172 122.334 10.9414 121.932 10.5898C121.533 10.2344 121.334 9.78516 121.334 9.24219C121.334 8.58203 121.584 8.07031 122.084 7.70703C122.588 7.33984 123.295 7.15625 124.205 7.15625H125.26V6.6582C125.26 6.2793 125.146 5.97852 124.92 5.75586C124.693 5.5293 124.359 5.41602 123.918 5.41602C123.531 5.41602 123.207 5.51367 122.945 5.70898C122.684 5.9043 122.553 6.14062 122.553 6.41797H121.463C121.463 6.10156 121.574 5.79688 121.797 5.50391C122.023 5.20703 122.328 4.97266 122.711 4.80078C123.098 4.62891 123.521 4.54297 123.982 4.54297C124.713 4.54297 125.285 4.72656 125.699 5.09375C126.113 5.45703 126.328 5.95898 126.344 6.59961V9.51758C126.344 10.0996 126.418 10.5625 126.566 10.9062V11H125.43ZM123.631 10.1738C123.971 10.1738 124.293 10.0859 124.598 9.91016C124.902 9.73438 125.123 9.50586 125.26 9.22461V7.92383H124.41C123.082 7.92383 122.418 8.3125 122.418 9.08984C122.418 9.42969 122.531 9.69531 122.758 9.88672C122.984 10.0781 123.275 10.1738 123.631 10.1738ZM129.221 11H128.137V2H129.221V11ZM132.139 11H131.055V2H132.139V11ZM135.057 11H133.973V4.66016H135.057V11ZM133.885 2.97852C133.885 2.80273 133.938 2.6543 134.043 2.5332C134.152 2.41211 134.312 2.35156 134.523 2.35156C134.734 2.35156 134.895 2.41211 135.004 2.5332C135.113 2.6543 135.168 2.80273 135.168 2.97852C135.168 3.1543 135.113 3.30078 135.004 3.41797C134.895 3.53516 134.734 3.59375 134.523 3.59375C134.312 3.59375 134.152 3.53516 134.043 3.41797C133.938 3.30078 133.885 3.1543 133.885 2.97852ZM137.822 4.66016L137.857 5.45703C138.342 4.84766 138.975 4.54297 139.756 4.54297C141.096 4.54297 141.771 5.29883 141.783 6.81055V11H140.699V6.80469C140.695 6.34766 140.59 6.00977 140.383 5.79102C140.18 5.57227 139.861 5.46289 139.428 5.46289C139.076 5.46289 138.768 5.55664 138.502 5.74414C138.236 5.93164 138.029 6.17773 137.881 6.48242V11H136.797V4.66016H137.822ZM144.443 4.66016L144.479 5.45703C144.963 4.84766 145.596 4.54297 146.377 4.54297C147.717 4.54297 148.393 5.29883 148.404 6.81055V11H147.32V6.80469C147.316 6.34766 147.211 6.00977 147.004 5.79102C146.801 5.57227 146.482 5.46289 146.049 5.46289C145.697 5.46289 145.389 5.55664 145.123 5.74414C144.857 5.93164 144.65 6.17773 144.502 6.48242V11H143.418V4.66016H144.443ZM149.752 7.77148C149.752 7.15039 149.873 6.5918 150.115 6.0957C150.361 5.59961 150.701 5.2168 151.135 4.94727C151.572 4.67773 152.07 4.54297 152.629 4.54297C153.492 4.54297 154.189 4.8418 154.721 5.43945C155.256 6.03711 155.523 6.83203 155.523 7.82422V7.90039C155.523 8.51758 155.404 9.07227 155.166 9.56445C154.932 10.0527 154.594 10.4336 154.152 10.707C153.715 10.9805 153.211 11.1172 152.641 11.1172C151.781 11.1172 151.084 10.8184 150.549 10.2207C150.018 9.62305 149.752 8.83203 149.752 7.84766V7.77148ZM150.842 7.90039C150.842 8.60352 151.004 9.16797 151.328 9.59375C151.656 10.0195 152.094 10.2324 152.641 10.2324C153.191 10.2324 153.629 10.0176 153.953 9.58789C154.277 9.1543 154.439 8.54883 154.439 7.77148C154.439 7.07617 154.273 6.51367 153.941 6.08398C153.613 5.65039 153.176 5.43359 152.629 5.43359C152.094 5.43359 151.662 5.64648 151.334 6.07227C151.006 6.49805 150.842 7.10742 150.842 7.90039ZM157.908 4.66016L157.943 5.45703C158.428 4.84766 159.061 4.54297 159.842 4.54297C161.182 4.54297 161.857 5.29883 161.869 6.81055V11H160.785V6.80469C160.781 6.34766 160.676 6.00977 160.469 5.79102C160.266 5.57227 159.947 5.46289 159.514 5.46289C159.162 5.46289 158.854 5.55664 158.588 5.74414C158.322 5.93164 158.115 6.17773 157.967 6.48242V11H156.883V4.66016H157.908ZM76.5332 21.7715C76.5332 21.1504 76.6543 20.5918 76.8965 20.0957C77.1426 19.5996 77.4824 19.2168 77.916 18.9473C78.3535 18.6777 78.8516 18.543 79.4102 18.543C80.2734 18.543 80.9707 18.8418 81.502 19.4395C82.0371 20.0371 82.3047 20.832 82.3047 21.8242V21.9004C82.3047 22.5176 82.1855 23.0723 81.9473 23.5645C81.7129 24.0527 81.375 24.4336 80.9336 24.707C80.4961 24.9805 79.9922 25.1172 79.4219 25.1172C78.5625 25.1172 77.8652 24.8184 77.3301 24.2207C76.7988 23.623 76.5332 22.832 76.5332 21.8477V21.7715ZM77.623 21.9004C77.623 22.6035 77.7852 23.168 78.1094 23.5938C78.4375 24.0195 78.875 24.2324 79.4219 24.2324C79.9727 24.2324 80.4102 24.0176 80.7344 23.5879C81.0586 23.1543 81.2207 22.5488 81.2207 21.7715C81.2207 21.0762 81.0547 20.5137 80.7227 20.084C80.3945 19.6504 79.957 19.4336 79.4102 19.4336C78.875 19.4336 78.4434 19.6465 78.1152 20.0723C77.7871 20.498 77.623 21.1074 77.623 21.9004ZM84.748 19.4277C85.2285 18.8379 85.8535 18.543 86.623 18.543C87.9629 18.543 88.6387 19.2988 88.6504 20.8105V25H87.5664V20.8047C87.5625 20.3477 87.457 20.0098 87.25 19.791C87.0469 19.5723 86.7285 19.4629 86.2949 19.4629C85.9434 19.4629 85.6348 19.5566 85.3691 19.7441C85.1035 19.9316 84.8965 20.1777 84.748 20.4824V25H83.6641V16H84.748V19.4277ZM91.3926 18.6602V25.7324C91.3926 26.9512 90.8398 27.5605 89.7344 27.5605C89.4961 27.5605 89.2754 27.5254 89.0723 27.4551V26.5879C89.1973 26.6191 89.3613 26.6348 89.5645 26.6348C89.8066 26.6348 89.9902 26.5684 90.1152 26.4355C90.2441 26.3066 90.3086 26.0801 90.3086 25.7559V18.6602H91.3926ZM90.1973 16.9785C90.1973 16.8066 90.25 16.6602 90.3555 16.5391C90.4648 16.4141 90.623 16.3516 90.8301 16.3516C91.041 16.3516 91.2012 16.4121 91.3105 16.5332C91.4199 16.6543 91.4746 16.8027 91.4746 16.9785C91.4746 17.1543 91.4199 17.3008 91.3105 17.418C91.2012 17.5352 91.041 17.5938 90.8301 17.5938C90.6191 17.5938 90.4609 17.5352 90.3555 17.418C90.25 17.3008 90.1973 17.1543 90.1973 16.9785ZM97.0586 25C96.9961 24.875 96.9453 24.6523 96.9062 24.332C96.4023 24.8555 95.8008 25.1172 95.1016 25.1172C94.4766 25.1172 93.9629 24.9414 93.5605 24.5898C93.1621 24.2344 92.9629 23.7852 92.9629 23.2422C92.9629 22.582 93.2129 22.0703 93.7129 21.707C94.2168 21.3398 94.9238 21.1562 95.834 21.1562H96.8887V20.6582C96.8887 20.2793 96.7754 19.9785 96.5488 19.7559C96.3223 19.5293 95.9883 19.416 95.5469 19.416C95.1602 19.416 94.8359 19.5137 94.5742 19.709C94.3125 19.9043 94.1816 20.1406 94.1816 20.418H93.0918C93.0918 20.1016 93.2031 19.7969 93.4258 19.5039C93.6523 19.207 93.957 18.9727 94.3398 18.8008C94.7266 18.6289 95.1504 18.543 95.6113 18.543C96.3418 18.543 96.9141 18.7266 97.3281 19.0938C97.7422 19.457 97.957 19.959 97.9727 20.5996V23.5176C97.9727 24.0996 98.0469 24.5625 98.1953 24.9062V25H97.0586ZM95.2598 24.1738C95.5996 24.1738 95.9219 24.0859 96.2266 23.9102C96.5312 23.7344 96.752 23.5059 96.8887 23.2246V21.9238H96.0391C94.7109 21.9238 94.0469 22.3125 94.0469 23.0898C94.0469 23.4297 94.1602 23.6953 94.3867 23.8867C94.6133 24.0781 94.9043 24.1738 95.2598 24.1738ZM103.586 24.373C103.164 24.8691 102.545 25.1172 101.729 25.1172C101.053 25.1172 100.537 24.9219 100.182 24.5312C99.8301 24.1367 99.6523 23.5547 99.6484 22.7852V18.6602H100.732V22.7559C100.732 23.7168 101.123 24.1973 101.904 24.1973C102.732 24.1973 103.283 23.8887 103.557 23.2715V18.6602H104.641V25H103.609L103.586 24.373ZM109.984 23.3184C109.984 23.0254 109.873 22.7988 109.65 22.6387C109.432 22.4746 109.047 22.334 108.496 22.2168C107.949 22.0996 107.514 21.959 107.189 21.7949C106.869 21.6309 106.631 21.4355 106.475 21.209C106.322 20.9824 106.246 20.7129 106.246 20.4004C106.246 19.8809 106.465 19.4414 106.902 19.082C107.344 18.7227 107.906 18.543 108.59 18.543C109.309 18.543 109.891 18.7285 110.336 19.0996C110.785 19.4707 111.01 19.9453 111.01 20.5234H109.92C109.92 20.2266 109.793 19.9707 109.539 19.7559C109.289 19.541 108.973 19.4336 108.59 19.4336C108.195 19.4336 107.887 19.5195 107.664 19.6914C107.441 19.8633 107.33 20.0879 107.33 20.3652C107.33 20.627 107.434 20.8242 107.641 20.957C107.848 21.0898 108.221 21.2168 108.76 21.3379C109.303 21.459 109.742 21.6035 110.078 21.7715C110.414 21.9395 110.662 22.1426 110.822 22.3809C110.986 22.6152 111.068 22.9023 111.068 23.2422C111.068 23.8086 110.842 24.2637 110.389 24.6074C109.936 24.9473 109.348 25.1172 108.625 25.1172C108.117 25.1172 107.668 25.0273 107.277 24.8477C106.887 24.668 106.58 24.418 106.357 24.0977C106.139 23.7734 106.029 23.4238 106.029 23.0488H107.113C107.133 23.4121 107.277 23.7012 107.547 23.916C107.82 24.127 108.18 24.2324 108.625 24.2324C109.035 24.2324 109.363 24.1504 109.609 23.9863C109.859 23.8184 109.984 23.5957 109.984 23.3184ZM114.736 21.8184H111.877V20.9336H114.736V21.8184ZM119.893 18.6602V25.7324C119.893 26.9512 119.34 27.5605 118.234 27.5605C117.996 27.5605 117.775 27.5254 117.572 27.4551V26.5879C117.697 26.6191 117.861 26.6348 118.064 26.6348C118.307 26.6348 118.49 26.5684 118.615 26.4355C118.744 26.3066 118.809 26.0801 118.809 25.7559V18.6602H119.893ZM118.697 16.9785C118.697 16.8066 118.75 16.6602 118.855 16.5391C118.965 16.4141 119.123 16.3516 119.33 16.3516C119.541 16.3516 119.701 16.4121 119.811 16.5332C119.92 16.6543 119.975 16.8027 119.975 16.9785C119.975 17.1543 119.92 17.3008 119.811 17.418C119.701 17.5352 119.541 17.5938 119.33 17.5938C119.119 17.5938 118.961 17.5352 118.855 17.418C118.75 17.3008 118.697 17.1543 118.697 16.9785ZM125.559 25C125.496 24.875 125.445 24.6523 125.406 24.332C124.902 24.8555 124.301 25.1172 123.602 25.1172C122.977 25.1172 122.463 24.9414 122.061 24.5898C121.662 24.2344 121.463 23.7852 121.463 23.2422C121.463 22.582 121.713 22.0703 122.213 21.707C122.717 21.3398 123.424 21.1562 124.334 21.1562H125.389V20.6582C125.389 20.2793 125.275 19.9785 125.049 19.7559C124.822 19.5293 124.488 19.416 124.047 19.416C123.66 19.416 123.336 19.5137 123.074 19.709C122.812 19.9043 122.682 20.1406 122.682 20.418H121.592C121.592 20.1016 121.703 19.7969 121.926 19.5039C122.152 19.207 122.457 18.9727 122.84 18.8008C123.227 18.6289 123.65 18.543 124.111 18.543C124.842 18.543 125.414 18.7266 125.828 19.0938C126.242 19.457 126.457 19.959 126.473 20.5996V23.5176C126.473 24.0996 126.547 24.5625 126.695 24.9062V25H125.559ZM123.76 24.1738C124.1 24.1738 124.422 24.0859 124.727 23.9102C125.031 23.7344 125.252 23.5059 125.389 23.2246V21.9238H124.539C123.211 21.9238 122.547 22.3125 122.547 23.0898C122.547 23.4297 122.66 23.6953 122.887 23.8867C123.113 24.0781 123.404 24.1738 123.76 24.1738ZM134.84 23.3184C134.84 23.0254 134.729 22.7988 134.506 22.6387C134.287 22.4746 133.902 22.334 133.352 22.2168C132.805 22.0996 132.369 21.959 132.045 21.7949C131.725 21.6309 131.486 21.4355 131.33 21.209C131.178 20.9824 131.102 20.7129 131.102 20.4004C131.102 19.8809 131.32 19.4414 131.758 19.082C132.199 18.7227 132.762 18.543 133.445 18.543C134.164 18.543 134.746 18.7285 135.191 19.0996C135.641 19.4707 135.865 19.9453 135.865 20.5234H134.775C134.775 20.2266 134.648 19.9707 134.395 19.7559C134.145 19.541 133.828 19.4336 133.445 19.4336C133.051 19.4336 132.742 19.5195 132.52 19.6914C132.297 19.8633 132.186 20.0879 132.186 20.3652C132.186 20.627 132.289 20.8242 132.496 20.957C132.703 21.0898 133.076 21.2168 133.615 21.3379C134.158 21.459 134.598 21.6035 134.934 21.7715C135.27 21.9395 135.518 22.1426 135.678 22.3809C135.842 22.6152 135.924 22.9023 135.924 23.2422C135.924 23.8086 135.697 24.2637 135.244 24.6074C134.791 24.9473 134.203 25.1172 133.48 25.1172C132.973 25.1172 132.523 25.0273 132.133 24.8477C131.742 24.668 131.436 24.418 131.213 24.0977C130.994 23.7734 130.885 23.4238 130.885 23.0488H131.969C131.988 23.4121 132.133 23.7012 132.402 23.916C132.676 24.127 133.035 24.2324 133.48 24.2324C133.891 24.2324 134.219 24.1504 134.465 23.9863C134.715 23.8184 134.84 23.5957 134.84 23.3184ZM141.25 25C141.188 24.875 141.137 24.6523 141.098 24.332C140.594 24.8555 139.992 25.1172 139.293 25.1172C138.668 25.1172 138.154 24.9414 137.752 24.5898C137.354 24.2344 137.154 23.7852 137.154 23.2422C137.154 22.582 137.404 22.0703 137.904 21.707C138.408 21.3398 139.115 21.1562 140.025 21.1562H141.08V20.6582C141.08 20.2793 140.967 19.9785 140.74 19.7559C140.514 19.5293 140.18 19.416 139.738 19.416C139.352 19.416 139.027 19.5137 138.766 19.709C138.504 19.9043 138.373 20.1406 138.373 20.418H137.283C137.283 20.1016 137.395 19.7969 137.617 19.5039C137.844 19.207 138.148 18.9727 138.531 18.8008C138.918 18.6289 139.342 18.543 139.803 18.543C140.533 18.543 141.105 18.7266 141.52 19.0938C141.934 19.457 142.148 19.959 142.164 20.5996V23.5176C142.164 24.0996 142.238 24.5625 142.387 24.9062V25H141.25ZM139.451 24.1738C139.791 24.1738 140.113 24.0859 140.418 23.9102C140.723 23.7344 140.943 23.5059 141.08 23.2246V21.9238H140.23C138.902 21.9238 138.238 22.3125 138.238 23.0898C138.238 23.4297 138.352 23.6953 138.578 23.8867C138.805 24.0781 139.096 24.1738 139.451 24.1738ZM138.033 16.9668C138.033 16.791 138.086 16.6445 138.191 16.5273C138.301 16.4062 138.461 16.3457 138.672 16.3457C138.883 16.3457 139.043 16.4062 139.152 16.5273C139.262 16.6445 139.316 16.791 139.316 16.9668C139.316 17.1426 139.262 17.2891 139.152 17.4062C139.043 17.5234 138.883 17.582 138.672 17.582C138.461 17.582 138.301 17.5234 138.191 17.4062C138.086 17.2891 138.033 17.1426 138.033 16.9668ZM140.553 16.9785C140.553 16.8027 140.605 16.6543 140.711 16.5332C140.82 16.4121 140.98 16.3516 141.191 16.3516C141.402 16.3516 141.562 16.4121 141.672 16.5332C141.781 16.6543 141.836 16.8027 141.836 16.9785C141.836 17.1543 141.781 17.3008 141.672 17.418C141.562 17.5352 141.402 17.5938 141.191 17.5938C140.98 17.5938 140.82 17.5352 140.711 17.418C140.605 17.3008 140.553 17.1543 140.553 16.9785ZM147.777 25C147.715 24.875 147.664 24.6523 147.625 24.332C147.121 24.8555 146.52 25.1172 145.82 25.1172C145.195 25.1172 144.682 24.9414 144.279 24.5898C143.881 24.2344 143.682 23.7852 143.682 23.2422C143.682 22.582 143.932 22.0703 144.432 21.707C144.936 21.3398 145.643 21.1562 146.553 21.1562H147.607V20.6582C147.607 20.2793 147.494 19.9785 147.268 19.7559C147.041 19.5293 146.707 19.416 146.266 19.416C145.879 19.416 145.555 19.5137 145.293 19.709C145.031 19.9043 144.9 20.1406 144.9 20.418H143.811C143.811 20.1016 143.922 19.7969 144.145 19.5039C144.371 19.207 144.676 18.9727 145.059 18.8008C145.445 18.6289 145.869 18.543 146.33 18.543C147.061 18.543 147.633 18.7266 148.047 19.0938C148.461 19.457 148.676 19.959 148.691 20.5996V23.5176C148.691 24.0996 148.766 24.5625 148.914 24.9062V25H147.777ZM145.979 24.1738C146.318 24.1738 146.641 24.0859 146.945 23.9102C147.25 23.7344 147.471 23.5059 147.607 23.2246V21.9238H146.758C145.43 21.9238 144.766 22.3125 144.766 23.0898C144.766 23.4297 144.879 23.6953 145.105 23.8867C145.332 24.0781 145.623 24.1738 145.979 24.1738ZM144.561 16.9668C144.561 16.791 144.613 16.6445 144.719 16.5273C144.828 16.4062 144.988 16.3457 145.199 16.3457C145.41 16.3457 145.57 16.4062 145.68 16.5273C145.789 16.6445 145.844 16.791 145.844 16.9668C145.844 17.1426 145.789 17.2891 145.68 17.4062C145.57 17.5234 145.41 17.582 145.199 17.582C144.988 17.582 144.828 17.5234 144.719 17.4062C144.613 17.2891 144.561 17.1426 144.561 16.9668ZM147.08 16.9785C147.08 16.8027 147.133 16.6543 147.238 16.5332C147.348 16.4121 147.508 16.3516 147.719 16.3516C147.93 16.3516 148.09 16.4121 148.199 16.5332C148.309 16.6543 148.363 16.8027 148.363 16.9785C148.363 17.1543 148.309 17.3008 148.199 17.418C148.09 17.5352 147.93 17.5938 147.719 17.5938C147.508 17.5938 147.348 17.5352 147.238 17.418C147.133 17.3008 147.08 17.1543 147.08 16.9785ZM151.861 17.125V18.6602H153.045V19.498H151.861V23.4297C151.861 23.6836 151.914 23.875 152.02 24.0039C152.125 24.1289 152.305 24.1914 152.559 24.1914C152.684 24.1914 152.855 24.168 153.074 24.1211V25C152.789 25.0781 152.512 25.1172 152.242 25.1172C151.758 25.1172 151.393 24.9707 151.146 24.6777C150.9 24.3848 150.777 23.9688 150.777 23.4297V19.498H149.623V18.6602H150.777V17.125H151.861ZM156.947 25.1172C156.088 25.1172 155.389 24.8359 154.85 24.2734C154.311 23.707 154.041 22.9512 154.041 22.0059V21.8066C154.041 21.1777 154.16 20.6172 154.398 20.125C154.641 19.6289 154.977 19.2422 155.406 18.9648C155.84 18.6836 156.309 18.543 156.812 18.543C157.637 18.543 158.277 18.8145 158.734 19.3574C159.191 19.9004 159.42 20.6777 159.42 21.6895V22.1406H155.125C155.141 22.7656 155.322 23.2715 155.67 23.6582C156.021 24.041 156.467 24.2324 157.006 24.2324C157.389 24.2324 157.713 24.1543 157.979 23.998C158.244 23.8418 158.477 23.6348 158.676 23.377L159.338 23.8926C158.807 24.709 158.01 25.1172 156.947 25.1172ZM156.812 19.4336C156.375 19.4336 156.008 19.5938 155.711 19.9141C155.414 20.2305 155.23 20.6758 155.16 21.25H158.336V21.168C158.305 20.6172 158.156 20.1914 157.891 19.8906C157.625 19.5859 157.266 19.4336 156.812 19.4336ZM161.857 25H160.773V16H161.857V25ZM165.672 23.4121L167.148 18.6602H168.309L165.76 25.9785C165.365 27.0332 164.738 27.5605 163.879 27.5605L163.674 27.543L163.27 27.4668V26.5879L163.562 26.6113C163.93 26.6113 164.215 26.5371 164.418 26.3887C164.625 26.2402 164.795 25.9688 164.928 25.5742L165.168 24.9297L162.906 18.6602H164.09L165.672 23.4121ZM174.637 21.9004C174.637 22.8652 174.416 23.6426 173.975 24.2324C173.533 24.8223 172.936 25.1172 172.182 25.1172C171.412 25.1172 170.807 24.873 170.365 24.3848V27.4375H169.281V18.6602H170.271L170.324 19.3633C170.766 18.8164 171.379 18.543 172.164 18.543C172.926 18.543 173.527 18.8301 173.969 19.4043C174.414 19.9785 174.637 20.7773 174.637 21.8008V21.9004ZM173.553 21.7773C173.553 21.0625 173.4 20.498 173.096 20.084C172.791 19.6699 172.373 19.4629 171.842 19.4629C171.186 19.4629 170.693 19.7539 170.365 20.3359V23.3652C170.689 23.9434 171.186 24.2324 171.854 24.2324C172.373 24.2324 172.785 24.0273 173.09 23.6172C173.398 23.2031 173.553 22.5898 173.553 21.7773ZM179.934 25C179.871 24.875 179.82 24.6523 179.781 24.332C179.277 24.8555 178.676 25.1172 177.977 25.1172C177.352 25.1172 176.838 24.9414 176.436 24.5898C176.037 24.2344 175.838 23.7852 175.838 23.2422C175.838 22.582 176.088 22.0703 176.588 21.707C177.092 21.3398 177.799 21.1562 178.709 21.1562H179.764V20.6582C179.764 20.2793 179.65 19.9785 179.424 19.7559C179.197 19.5293 178.863 19.416 178.422 19.416C178.035 19.416 177.711 19.5137 177.449 19.709C177.188 19.9043 177.057 20.1406 177.057 20.418H175.967C175.967 20.1016 176.078 19.7969 176.301 19.5039C176.527 19.207 176.832 18.9727 177.215 18.8008C177.602 18.6289 178.025 18.543 178.486 18.543C179.217 18.543 179.789 18.7266 180.203 19.0938C180.617 19.457 180.832 19.959 180.848 20.5996V23.5176C180.848 24.0996 180.922 24.5625 181.07 24.9062V25H179.934ZM178.135 24.1738C178.475 24.1738 178.797 24.0859 179.102 23.9102C179.406 23.7344 179.627 23.5059 179.764 23.2246V21.9238H178.914C177.586 21.9238 176.922 22.3125 176.922 23.0898C176.922 23.4297 177.035 23.6953 177.262 23.8867C177.488 24.0781 177.779 24.1738 178.135 24.1738ZM183.725 25H182.641V16H183.725V25ZM187.557 23.5293L189.127 18.6602H190.234L187.961 25H187.135L184.838 18.6602H185.945L187.557 23.5293ZM193.826 25.1172C192.967 25.1172 192.268 24.8359 191.729 24.2734C191.189 23.707 190.92 22.9512 190.92 22.0059V21.8066C190.92 21.1777 191.039 20.6172 191.277 20.125C191.52 19.6289 191.855 19.2422 192.285 18.9648C192.719 18.6836 193.188 18.543 193.691 18.543C194.516 18.543 195.156 18.8145 195.613 19.3574C196.07 19.9004 196.299 20.6777 196.299 21.6895V22.1406H192.004C192.02 22.7656 192.201 23.2715 192.549 23.6582C192.9 24.041 193.346 24.2324 193.885 24.2324C194.268 24.2324 194.592 24.1543 194.857 23.998C195.123 23.8418 195.355 23.6348 195.555 23.377L196.217 23.8926C195.686 24.709 194.889 25.1172 193.826 25.1172ZM193.691 19.4336C193.254 19.4336 192.887 19.5938 192.59 19.9141C192.293 20.2305 192.109 20.6758 192.039 21.25H195.215V21.168C195.184 20.6172 195.035 20.1914 194.77 19.8906C194.504 19.5859 194.145 19.4336 193.691 19.4336ZM198.736 25H197.652V16H198.736V25ZM204.391 24.373C203.969 24.8691 203.35 25.1172 202.533 25.1172C201.857 25.1172 201.342 24.9219 200.986 24.5312C200.635 24.1367 200.457 23.5547 200.453 22.7852V18.6602H201.537V22.7559C201.537 23.7168 201.928 24.1973 202.709 24.1973C203.537 24.1973 204.088 23.8887 204.361 23.2715V18.6602H205.445V25H204.414L204.391 24.373Z" fill="white"/>
</svg>
