<svg xmlns="http://www.w3.org/2000/svg" xmlns:xlink="http://www.w3.org/1999/xlink" viewBox="0 0 293.93 23.24" aria-describedby="okm-logo okm-logo-desc" role="img"><defs><style>.cls-1{fill:#fff;}.cls-1,.cls-2{fill-rule:evenodd;}.cls-2{fill:#1a1a18;}.cls-3{mask:url(#mask);}.cls-4{mask:url(#mask-2);}</style><mask id="mask" x="16.01" y="5.36" width="10.45" height="17.88" maskUnits="userSpaceOnUse"><g id="mask0">
<title id="okm-logo">Opetus- ja kulttuuriministeriö</title>
<desc id="okm-logo-desc">SVG logo</desc>
<path class="cls-1" d="M16,5.36H26.46V23.24H16Z"/></g></mask><mask id="mask-2" x="0" y="0" width="293.93" height="23.24" maskUnits="userSpaceOnUse"><g id="mask1"><path class="cls-1" d="M0,23.24H293.93V0H0Z"/></g></mask></defs><title>okm-logo</title><g id="Layer_2" data-name="Layer 2"><g id="Layer_1-2" data-name="Layer 1"><path class="cls-2" d="M11.12,9.91c0,4.72-1.5,6.62-4.14,6.62-3.32,0-4.32-3-4.32-7.28s1.2-6.59,4.2-6.59C10.06,2.66,11.12,5.31,11.12,9.91Zm2.7-.22c0-4.72-2-8.88-7-8.88C2.7.81,0,3.94,0,9.52c0,5.09,2.31,8.8,7,8.8C11.29,18.32,13.82,14.88,13.82,9.69Z"/><g class="cls-3"><path class="cls-2" d="M24,12c0,3-.91,4.53-2.91,4.53a3.84,3.84,0,0,1-2.63-1.36V8.85a3.88,3.88,0,0,1,3-1.52C23.38,7.33,24,9,24,12Zm2.43-.27c0-4.23-2.12-6.27-4.62-6.27a4.49,4.49,0,0,0-3.5,1.72,6.88,6.88,0,0,0-.14-1.77L16,5.73a13.14,13.14,0,0,1,.27,3V23.24l2.21-.52V18.39a12.1,12.1,0,0,0,0-1.37,4.74,4.74,0,0,0,3.2,1.27C24.79,18.29,26.46,15.52,26.46,11.68Z"/></g><path class="cls-2" d="M36.1,10.7H31c0-2.24.86-3.64,2.58-3.64a2.24,2.24,0,0,1,1.77.86A4.51,4.51,0,0,1,36.1,10.7Zm2.36,1.67V12c0-2.83-.42-4.21-1.5-5.32a4.47,4.47,0,0,0-3.35-1.33A4.62,4.62,0,0,0,29.9,7a6.78,6.78,0,0,0-1.47,4.77c0,4,2.09,6.52,5.51,6.52a6.3,6.3,0,0,0,4.25-1.58l-.86-1.35a4.38,4.38,0,0,1-3,1.18,3.18,3.18,0,0,1-2.82-1.45A4.62,4.62,0,0,1,31,12.66v-.29Z"/><path class="cls-2" d="M46.67,5.73h-3c0-1.26.12-2.82.22-3.71l-2.33.54a25.6,25.6,0,0,0-.15,3.17H39.93v1.6h1.48v7.94c0,1.8.39,2,.91,2.51a3.4,3.4,0,0,0,2.09.61,5,5,0,0,0,2.24-.51l-.27-1.38a2.77,2.77,0,0,1-1.16.24c-1.23,0-1.6-.46-1.6-2V7.33h2.44Z"/><path class="cls-2" d="M58.67,17.24a3.39,3.39,0,0,1-.76-2.56V5.41l-2.24.44v8.86a3.37,3.37,0,0,1-2.8,1.94,2.29,2.29,0,0,1-1.43-.54c-.44-.42-.56-.91-.56-2.17V5.36l-2.24.44v8.76a5.15,5.15,0,0,0,.3,2.07,3.45,3.45,0,0,0,3.32,1.84A4.54,4.54,0,0,0,56,16.7a2.93,2.93,0,0,0,1.15,1.77Z"/><path class="cls-2" d="M69.64,14.26c0-1.62-.93-2.92-3.2-3.44l-1.59-.37c-1.31-.29-1.75-.79-1.75-1.67a1.88,1.88,0,0,1,2.14-1.84,6.59,6.59,0,0,1,3,.88L69,6.22a7.86,7.86,0,0,0-3.89-1c-2.66,0-4.45,1.58-4.45,3.84a3.33,3.33,0,0,0,3,3.42l1.5.29c1.43.27,2.06.89,2.06,1.94a2,2,0,0,1-2.28,2,8.44,8.44,0,0,1-4-1.23l-.81,1.62a9.33,9.33,0,0,0,4.6,1.3C67.67,18.39,69.64,16.72,69.64,14.26Z"/><g class="cls-4"><path class="cls-2" d="M71.73,12.52h5V10.28h-5Z"/><path class="cls-2" d="M87.57,1.75a1.62,1.62,0,1,0-3.23,0,1.59,1.59,0,0,0,1.6,1.63A1.65,1.65,0,0,0,87.57,1.75Zm-.4,16V5.43l-2.33.5V17.75c0,1.6-.3,2.78-1,3.4a5.78,5.78,0,0,1-.79.59l1,1.37a5.57,5.57,0,0,0,2.16-1.69A5.79,5.79,0,0,0,87.17,17.78Z"/><path class="cls-2" d="M96.59,12l-.07,3.15a3.08,3.08,0,0,1-2.59,1.62C92.68,16.77,92,16,92,14.63a2.36,2.36,0,0,1,.64-1.79c.49-.57,1.53-.89,3.22-.89C96.05,12,96.25,12,96.59,12Zm3.2,5c-1-.59-1-1.28-1-3s.1-3.69.1-4.58a5.52,5.52,0,0,0-.25-2.16c-.47-1.3-1.77-2-3.56-2A9.71,9.71,0,0,0,89.9,7l1,1.63A6.78,6.78,0,0,1,94.72,7.2c1.72,0,1.92,1,1.92,2.44v.81c-.32,0-.57,0-.86,0-4,0-6.27,1.52-6.27,4.37,0,2.37,1.52,3.62,4,3.62A4.28,4.28,0,0,0,97,16.8a2.85,2.85,0,0,0,1.65,1.77Z"/><path class="cls-2" d="M118.21,18.05,112.72,11l4.4-5.23h-2.75l-4.06,5.33,5.07,7Zm-8.14,0V2.72a13.24,13.24,0,0,0-.3-2.72l-2.29.54a10.2,10.2,0,0,1,.32,2.82V18.05Z"/><path class="cls-2" d="M129.59,17.24a3.39,3.39,0,0,1-.76-2.56V5.41l-2.24.44v8.86a3.39,3.39,0,0,1-2.8,1.94,2.29,2.29,0,0,1-1.43-.54c-.44-.42-.56-.91-.56-2.17V5.36l-2.24.44v8.76a5.35,5.35,0,0,0,.29,2.07,3.47,3.47,0,0,0,3.32,1.84,4.55,4.55,0,0,0,3.72-1.77A2.93,2.93,0,0,0,128,18.47Z"/><path class="cls-2" d="M136.43,18l-.4-1.41a.8.8,0,0,1-.76-.17c-.24-.22-.32-.52-.32-1.82V3.54A15.33,15.33,0,0,0,134.73,0l-2.36.49a15.81,15.81,0,0,1,.27,3.54V15.22a3.11,3.11,0,0,0,.47,2.14,2.08,2.08,0,0,0,1.92.94A3.43,3.43,0,0,0,136.43,18Z"/><path class="cls-2" d="M144.15,5.73h-3c0-1.26.12-2.82.22-3.71L139,2.56a27.71,27.71,0,0,0-.14,3.17h-1.48v1.6h1.48v7.94c0,1.8.39,2,.91,2.51a3.4,3.4,0,0,0,2.09.61,4.94,4.94,0,0,0,2.23-.51l-.27-1.38a2.7,2.7,0,0,1-1.15.24c-1.23,0-1.6-.46-1.6-2V7.33h2.43Z"/><path class="cls-2" d="M151.75,5.73h-3c0-1.26.13-2.82.23-3.71l-2.34.54a27.7,27.7,0,0,0-.15,3.17H145v1.6h1.47v7.94c0,1.8.4,2,.91,2.51a3.42,3.42,0,0,0,2.09.61,5,5,0,0,0,2.24-.51l-.27-1.38a2.74,2.74,0,0,1-1.16.24c-1.22,0-1.6-.46-1.6-2V7.33h2.44Z"/><path class="cls-2" d="M163.75,17.24a3.35,3.35,0,0,1-.77-2.56V5.41l-2.24.44v8.86a3.37,3.37,0,0,1-2.8,1.94,2.24,2.24,0,0,1-1.42-.54c-.45-.42-.57-.91-.57-2.17V5.36l-2.24.44v8.76a5.33,5.33,0,0,0,.3,2.07,3.46,3.46,0,0,0,3.32,1.84A4.53,4.53,0,0,0,161,16.7a2.9,2.9,0,0,0,1.16,1.77Z"/><path class="cls-2" d="M176.83,17.24a3.39,3.39,0,0,1-.76-2.56V5.41l-2.24.44v8.86A3.4,3.4,0,0,1,171,16.65a2.26,2.26,0,0,1-1.42-.54c-.44-.42-.57-.91-.57-2.17V5.36l-2.23.44v8.76a5.35,5.35,0,0,0,.29,2.07,3.47,3.47,0,0,0,3.32,1.84,4.53,4.53,0,0,0,3.71-1.77,2.9,2.9,0,0,0,1.16,1.77Z"/><path class="cls-2" d="M186.24,5.46a2.05,2.05,0,0,0-.76-.12,4,4,0,0,0-3.34,2.14V7.26a5.14,5.14,0,0,0-.42-1.9l-2.19.57A7.74,7.74,0,0,1,180,9v9.05h2.26V10.11a2.57,2.57,0,0,1,2.56-2.51,1.91,1.91,0,0,1,.64.12Z"/><path class="cls-2" d="M190.89,1.94a1.61,1.61,0,1,0-3.21,0,1.59,1.59,0,0,0,1.57,1.63A1.64,1.64,0,0,0,190.89,1.94Zm-.46,16.11V5.43l-2.34.37V18.05Z"/><path class="cls-2" d="M209.76,18.05V8.85c0-2.26-1.23-3.46-3.15-3.46a5.28,5.28,0,0,0-3.76,1.94,3.18,3.18,0,0,0-2.93-1.94,5.05,5.05,0,0,0-3.47,1.74A3.44,3.44,0,0,0,196,5.41l-2.11.52A6.77,6.77,0,0,1,194.36,9v9.05h2.24V8.8a4.22,4.22,0,0,1,2.83-1.42c1.13,0,1.52.51,1.52,1.89v8.78h2.22V9c.93-.93,1.74-1.67,2.87-1.67s1.48.49,1.48,1.89v8.83Z"/><path class="cls-2" d="M216.49,1.94a1.61,1.61,0,1,0-3.22,0,1.6,1.6,0,0,0,1.58,1.63A1.65,1.65,0,0,0,216.49,1.94ZM216,18.05V5.43l-2.34.37V18.05Z"/><path class="cls-2" d="M229.13,18.05V8.73a4,4,0,0,0-.29-1.55,3.09,3.09,0,0,0-2.91-1.75,4.52,4.52,0,0,0-2.28.62,10.62,10.62,0,0,0-1.6,1.21,3.86,3.86,0,0,0-.42-1.9L219.49,6A6.8,6.8,0,0,1,220,8.88v9.17h2.24V8.93a4.93,4.93,0,0,1,3.05-1.58,1.53,1.53,0,0,1,1.25.49c.3.4.39.79.39,1.9v8.31Z"/><path class="cls-2" d="M235.87,1.94a1.61,1.61,0,1,0-3.22,0,1.6,1.6,0,0,0,1.57,1.63A1.65,1.65,0,0,0,235.87,1.94Zm-.47,16.11V5.43l-2.33.37V18.05Z"/><path class="cls-2" d="M247.55,14.26c0-1.62-.94-2.92-3.2-3.44l-1.6-.37c-1.3-.29-1.74-.79-1.74-1.67a1.88,1.88,0,0,1,2.14-1.84,6.59,6.59,0,0,1,3,.88l.77-1.6a7.86,7.86,0,0,0-3.89-1c-2.65,0-4.45,1.58-4.45,3.84a3.33,3.33,0,0,0,3,3.42l1.5.29c1.42.27,2.07.89,2.07,1.94a2,2,0,0,1-2.29,2,8.44,8.44,0,0,1-4-1.23l-.81,1.62a9.32,9.32,0,0,0,4.59,1.3C245.58,18.39,247.55,16.72,247.55,14.26Z"/><path class="cls-2" d="M255.64,5.73h-3c0-1.26.12-2.82.22-3.71l-2.33.54a25.6,25.6,0,0,0-.15,3.17H248.9v1.6h1.48v7.94c0,1.8.39,2,.91,2.51a3.4,3.4,0,0,0,2.09.61,5,5,0,0,0,2.24-.51l-.27-1.38a2.77,2.77,0,0,1-1.16.24c-1.23,0-1.6-.46-1.6-2V7.33H255Z"/><path class="cls-2" d="M264.78,10.7h-5.11c0-2.24.86-3.64,2.58-3.64a2.24,2.24,0,0,1,1.78.86A4.51,4.51,0,0,1,264.78,10.7Zm2.37,1.67V12c0-2.83-.42-4.21-1.5-5.32a4.49,4.49,0,0,0-3.35-1.33A4.62,4.62,0,0,0,258.59,7a6.73,6.73,0,0,0-1.47,4.77c0,4,2.09,6.52,5.5,6.52a6.3,6.3,0,0,0,4.26-1.58L266,15.39a4.38,4.38,0,0,1-3,1.18,3.2,3.2,0,0,1-2.83-1.45,4.62,4.62,0,0,1-.51-2.46v-.29Z"/><path class="cls-2" d="M276.35,5.46a2.15,2.15,0,0,0-.77-.12,4,4,0,0,0-3.34,2.14V7.26a5.14,5.14,0,0,0-.42-1.9l-2.19.57A7.74,7.74,0,0,1,270.1,9v9.05h2.26V10.11a2.57,2.57,0,0,1,2.56-2.51,1.91,1.91,0,0,1,.64.12Z"/><path class="cls-2" d="M281,1.94a1.61,1.61,0,1,0-3.22,0,1.6,1.6,0,0,0,1.58,1.63A1.65,1.65,0,0,0,281,1.94Zm-.46,16.11V5.43l-2.34.37V18.05Z"/><path class="cls-2" d="M292.5,2.63a1.49,1.49,0,0,0-1.45-1.52,1.48,1.48,0,0,0-1.43,1.52,1.44,1.44,0,1,0,2.88,0Zm-5.11,0a1.5,1.5,0,0,0-1.45-1.52,1.48,1.48,0,0,0-1.43,1.52,1.44,1.44,0,1,0,2.88,0Zm4,9.47c0,3.22-1.05,4.55-2.78,4.55-1.91,0-2.87-1.26-2.87-5,0-3.1.81-4.5,2.78-4.5C290.29,7.13,291.39,8.29,291.39,12.1Zm2.54-.1c0-3.71-1.77-6.61-5.41-6.61-3.25,0-5.29,2.5-5.29,6.49s2,6.51,5.34,6.51S293.93,15.91,293.93,12Z"/></g></g></g></svg>
