<svg width="263" height="50" viewBox="0 0 263 50" fill="none" xmlns="http://www.w3.org/2000/svg">
<g clip-path="url(#clip0)">
<path d="M23.5947 6.21305V5.62134H28.9201V6.28702C27.145 6.28702 26.8491 6.65684 26.8491 8.80181V13.8314C26.8491 17.2338 24.4823 19.0089 21.5976 19.0089C18.713 19.0089 16.4201 17.2338 16.4201 13.8314V8.80181C16.4201 6.65684 16.1243 6.28702 14.3491 6.28702V5.62134H21.2278V6.28702C19.3787 6.28702 19.1568 6.65684 19.1568 8.80181V13.6095C19.1568 16.4202 20.6361 17.7515 22.5592 17.7515C24.4083 17.7515 25.7397 16.4202 25.7397 13.6095V8.80181C25.6657 6.58288 25.4438 6.21305 23.5947 6.21305Z" fill="#121617"/>
<path d="M42.3817 8.72785C42.3817 6.58288 42.0859 6.21305 40.3107 6.21305V5.62134H45.4882V6.28702C43.6391 6.28702 43.4172 6.65684 43.4172 8.80181V19.0089H42.8995L33.8018 8.28406V15.4586C33.8018 17.6036 34.0977 17.9734 35.8728 17.9734V18.6391H30.7693V17.9734C32.5444 17.9734 32.8403 17.6036 32.8403 15.4586V8.80181C32.8403 6.65684 32.5444 6.28702 30.7693 6.28702V5.62134H35.1332L42.3817 14.2752V8.72785Z" fill="#121617"/>
<path d="M47.7072 17.9734C49.4823 17.9734 49.7782 17.6036 49.7782 15.4586V8.80181C49.7782 6.65684 49.4823 6.28702 47.7072 6.28702V5.62134H54.8817C59.9113 5.62134 62.1302 8.57992 62.1302 12.1302C62.1302 15.6805 59.9113 18.6391 54.8817 18.6391H47.7072V17.9734ZM52.4409 15.1628C52.4409 17.2338 52.7367 17.6036 54.5119 17.6036H54.8817C58.432 17.6036 59.0977 14.4971 59.0977 12.0562C59.0977 9.61542 58.358 6.50891 54.8817 6.50891H52.4409V15.1628Z" fill="#121617"/>
<path d="M64.4231 17.9734C66.1982 17.9734 66.4941 17.6036 66.4941 15.4586V8.80181C66.4941 6.65684 66.1982 6.28702 64.4231 6.28702V5.62134H75.5917L75.7397 8.65388H75.074L75 8.2101C74.7042 7.02666 74.4823 6.58288 72.4852 6.58288H69.1568V11.2426H70.3403C72.4852 11.2426 72.8551 10.9468 72.8551 9.17163H73.5207V14.3491H72.8551C72.8551 12.5 72.4852 12.2781 70.3403 12.2781H69.1568V15.1628C69.1568 17.3077 69.4527 17.6776 71.2278 17.6776H73.1509C75.148 17.6776 75.3698 17.1598 75.6657 16.0503L75.7397 15.6065H76.4054L76.2574 18.6391H64.4231V17.9734Z" fill="#121617"/>
<path d="M89.2013 15.2367C91.1243 17.3077 91.938 17.8255 93.2693 18.0474V18.7131H88.5356L84.6894 13.0178H84.0238V15.5326C84.0238 17.6776 84.3196 18.0474 86.0948 18.0474V18.7131H79.2161V18.0474C80.9912 18.0474 81.2871 17.6776 81.2871 15.5326V8.87578C81.2871 6.73081 80.9912 6.36098 79.2161 6.36098V5.62134H86.4646C89.1273 5.62134 90.8285 7.24856 90.8285 9.31956C90.8285 11.2426 89.3492 12.7219 86.9823 12.9438L89.2013 15.2367ZM88.0178 9.2456C88.0178 7.76631 87.1303 6.58288 85.2072 6.58288H84.0238V11.9823H85.2072C87.1303 11.9083 88.0178 10.7249 88.0178 9.2456Z" fill="#121617"/>
<path d="M104.808 8.13613L100.074 19.0089H99.6302L94.8965 8.13613C94.3048 6.73081 94.0089 6.21305 92.2338 6.21305V5.62134H99.3344V6.28702C97.4113 6.28702 97.1894 6.80477 97.7071 7.91424L100.74 14.9409L103.772 7.91424C104.29 6.73081 103.92 6.28702 102.145 6.28702V5.62134H107.396V6.28702C105.991 6.21305 105.473 6.58288 104.808 8.13613Z" fill="#121617"/>
<path d="M108.358 18.6391V17.9734C110.133 17.9734 110.429 17.6036 110.429 15.4586V8.80181C110.429 6.65684 110.133 6.28702 108.358 6.28702V5.62134H115.237V6.28702C113.462 6.28702 113.166 6.65684 113.166 8.80181V15.4586C113.166 17.6036 113.462 17.9734 115.237 17.9734V18.6391H108.358V18.6391Z" fill="#121617"/>
<path d="M118.861 19.0089H118.195V14.2013H118.861C119.305 16.4942 121.08 17.9734 122.855 17.9734C124.112 17.9734 125 17.2338 125 15.8285C125 15.0149 124.408 14.1273 123.373 13.6095L121.302 12.5001C119.453 11.5385 118.343 10.577 118.343 8.35806C118.343 6.58291 120.044 5.10362 122.115 5.10362C123.373 5.10362 124.112 5.5474 124.778 5.99119C125.074 5.7693 125.296 5.47344 125.444 4.95569H126.036V9.76338H125.37C125.222 8.0622 124.556 6.06516 122.263 6.06516C121.376 6.06516 120.488 6.73084 120.488 7.8403C120.488 8.50598 121.08 9.46752 122.263 10.0592L124.334 11.0947C125.888 11.9084 127.145 13.2397 127.145 14.9409C127.145 17.3078 125.074 18.861 122.855 18.861C121.228 18.861 120.192 17.9734 119.453 17.8255C119.231 18.1953 118.935 18.4912 118.861 19.0089Z" fill="#121617"/>
<path d="M141.494 8.72785C141.494 6.58288 141.198 6.21305 139.423 6.21305V5.62134H144.601V6.28702C142.751 6.28702 142.53 6.65684 142.53 8.80181V19.0089H142.012L132.988 8.28406V15.4586C132.988 17.6036 133.284 17.9734 135.059 17.9734V18.6391H129.956V17.9734C131.731 17.9734 132.027 17.6036 132.027 15.4586V8.80181C132.027 6.65684 131.731 6.28702 129.956 6.28702V5.62134H134.319L141.568 14.2752V8.72785H141.494Z" fill="#121617"/>
<path d="M147.041 18.6391V17.9734C148.817 17.9734 149.112 17.6036 149.112 15.4586V8.80181C149.112 6.65684 148.817 6.28702 147.041 6.28702V5.62134H153.92V6.28702C152.145 6.28702 151.849 6.65684 151.849 8.80181V15.4586C151.849 17.6036 152.145 17.9734 153.92 17.9734V18.6391H147.041V18.6391Z" fill="#121617"/>
<path d="M168.047 8.72785C168.047 6.58288 167.752 6.21305 165.976 6.21305V5.62134H171.154V6.28702C169.305 6.28702 169.083 6.65684 169.083 8.80181V19.0089H168.565L159.541 8.28406V15.4586C159.541 17.6036 159.837 17.9734 161.612 17.9734V18.6391H156.509V17.9734C158.284 17.9734 158.58 17.6036 158.58 15.4586V8.80181C158.58 6.65684 158.284 6.28702 156.509 6.28702V5.62134H160.873L168.121 14.2752V8.72785H168.047Z" fill="#121617"/>
<path d="M181.065 13.8315V13.1658H187.5V13.8315C185.725 13.8315 185.429 14.2013 185.429 16.3463V17.8255C182.84 17.8255 181.953 18.935 179.808 18.935C176.109 18.935 173.151 15.8285 173.151 12.0563C173.151 8.28412 176.183 5.17761 179.808 5.17761C181.361 5.17761 182.766 5.84329 183.876 7.02672C184.172 6.80483 184.319 6.36104 184.467 5.76933H185.059V10.577H184.393C183.802 7.76637 182.027 6.21311 179.882 6.21311C176.923 6.21311 176.035 9.39359 176.035 12.0563C176.035 14.719 176.849 17.8995 179.882 17.8995C181.583 17.8995 183.136 17.2338 183.136 15.2368C183.136 14.3492 182.544 13.8315 181.065 13.8315Z" fill="#121617"/>
<path d="M190.089 19.0089H189.423V14.2013H190.089C190.533 16.4942 192.308 17.9734 194.083 17.9734C195.34 17.9734 196.228 17.2338 196.228 15.8285C196.228 15.0149 195.636 14.1273 194.601 13.6095L192.53 12.5001C190.68 11.5385 189.571 10.577 189.571 8.35806C189.571 6.58291 191.272 5.10362 193.343 5.10362C194.601 5.10362 195.34 5.5474 196.006 5.99119C196.302 5.7693 196.524 5.47344 196.672 4.95569H197.263V9.76338H196.598C196.45 8.0622 195.784 6.06516 193.491 6.06516C192.604 6.06516 191.716 6.73084 191.716 7.8403C191.716 8.50598 192.308 9.46752 193.491 10.0592L195.562 11.0947C197.115 11.9084 198.373 13.2397 198.373 14.9409C198.373 17.3078 196.302 18.861 194.083 18.861C192.456 18.861 191.42 17.9734 190.68 17.8255C190.459 18.1953 190.163 18.4912 190.089 19.0089Z" fill="#121617"/>
<path d="M201.331 13.2398V11.5386H207.692V13.2398H201.331Z" fill="#121617"/>
<path d="M221.006 19.009C217.012 19.009 213.757 15.9025 213.757 12.1303C213.757 8.3581 217.012 5.25159 221.006 5.25159C225 5.25159 228.255 8.3581 228.255 12.1303C228.255 15.9025 224.926 19.009 221.006 19.009ZM221.006 6.28709C217.899 6.28709 216.716 9.46756 216.716 12.1303C216.716 14.793 217.973 17.9735 221.006 17.9735C224.039 17.9735 225.296 14.793 225.296 12.1303C225.296 9.46756 224.039 6.28709 221.006 6.28709Z" fill="#121617"/>
<path d="M242.752 18.4173C242.604 17.8995 242.456 17.3818 242.16 17.1599C241.05 18.3433 239.645 19.009 238.092 19.009C234.394 19.009 231.435 15.9025 231.435 12.1303C231.435 8.3581 234.468 5.25159 238.092 5.25159C239.645 5.25159 241.05 5.91727 242.16 7.1007C242.456 6.87881 242.604 6.43502 242.752 5.8433H243.343V10.651H242.678C242.086 7.84034 240.311 6.28709 238.166 6.28709C235.207 6.28709 234.32 9.46756 234.32 12.1303C234.32 14.793 235.133 17.9735 238.166 17.9735C240.311 17.9735 242.086 16.4202 242.678 13.6096H243.343V18.4173H242.752Z" fill="#121617"/>
<path d="M251.183 15.4586C251.183 17.6036 251.479 17.9734 253.254 17.9734V18.6391H246.376V17.9734C248.151 17.9734 248.447 17.6036 248.447 15.4586V8.80181C248.447 6.65684 248.151 6.28702 246.376 6.28702V5.62134H253.254V6.28702C251.479 6.28702 251.183 6.65684 251.183 8.80181V11.2426H257.84V8.80181C257.84 6.65684 257.544 6.28702 255.769 6.28702V5.62134H262.648V6.28702C260.873 6.28702 260.577 6.65684 260.577 8.80181V15.4586C260.577 17.6036 260.873 17.9734 262.648 17.9734V18.6391H255.769V17.9734C257.618 17.9734 257.84 17.6036 257.84 15.4586V12.2042H251.183V15.4586Z" fill="#121617"/>
<path d="M28.1065 41.864C28.8462 42.6036 30.3255 43.1213 30.9172 43.1213V43.787H23.6687V43.1213C24.7781 43.1213 25.2959 42.7515 24.4823 41.864L20.1923 37.2042L19.2308 37.9438V40.6066C19.2308 42.7515 19.5266 43.1213 21.3018 43.1213V43.787H14.4231V43.1213C16.1982 43.1213 16.4941 42.7515 16.4941 40.6066V33.9498C16.4941 31.8048 16.1982 31.435 14.4231 31.435V30.7693H21.3018V31.435C19.5266 31.435 19.2308 31.8048 19.2308 33.9498V36.8344L23.8166 33.1361C24.3343 32.6924 25.7397 31.361 23.8906 31.361V30.6953H29.142V31.361C27.2929 31.361 26.5533 32.0267 25.1479 33.1361L22.0414 35.577L28.1065 41.864Z" fill="#121617"/>
<path d="M39.7929 31.361V30.6953H45.1184V31.361C43.3432 31.361 43.0474 31.7308 43.0474 33.8758V38.9054C43.0474 42.3077 40.6805 44.0829 37.7959 44.0829C34.9113 44.0829 32.6184 42.3077 32.6184 38.9054V33.8758C32.6184 31.7308 32.3225 31.361 30.5474 31.361V30.6953H37.4261V31.361C35.5769 31.361 35.3551 31.7308 35.3551 33.8758V38.6835C35.3551 41.4941 36.8343 42.8255 38.7574 42.8255C40.6065 42.8255 41.9379 41.4941 41.9379 38.6835V33.8758C41.8639 31.7308 41.642 31.361 39.7929 31.361Z" fill="#121617"/>
<path d="M46.8936 31.361V30.6953H53.7722V31.361C51.9971 31.361 51.7012 31.7308 51.7012 33.8758V40.2367C51.7012 42.3817 51.9971 42.7515 53.7722 42.7515H56.287C58.2841 42.7515 58.506 42.2338 58.8018 41.1243L58.8758 40.6805H59.5415L59.3936 43.7131H46.8936V43.0474C48.6687 43.0474 48.9646 42.6776 48.9646 40.5326V33.8758C48.9646 31.7308 48.7427 31.361 46.8936 31.361Z" fill="#121617"/>
<path d="M72.6332 33.8018H71.9675L71.8935 33.358C71.5977 32.1746 71.3758 31.7308 69.3787 31.7308H67.2338V40.6066C67.2338 42.7515 67.5296 43.1214 69.3048 43.1214V43.787H62.4261V43.1214C64.2012 43.1214 64.4971 42.7515 64.4971 40.6066V31.7308H62.3521C60.3551 31.7308 60.1332 32.2486 59.8373 33.358L59.7633 33.8018H59.0977L59.3195 30.7693H72.5592L72.6332 33.8018Z" fill="#121617"/>
<path d="M83.284 31.361V30.6953H88.6095V31.361C86.8343 31.361 86.5385 31.7308 86.5385 33.8758V38.9054C86.5385 42.3077 84.1716 44.0829 81.287 44.0829C78.4024 44.0829 76.1095 42.3077 76.1095 38.9054V33.8758C76.1095 31.7308 75.8136 31.361 74.0385 31.361V30.6953H80.9172V31.361C79.068 31.361 78.8461 31.7308 78.8461 33.8758V38.6835C78.8461 41.4941 80.3254 42.8255 82.2485 42.8255C84.0976 42.8255 85.429 41.4941 85.429 38.6835V33.8758C85.355 31.7308 85.1331 31.361 83.284 31.361Z" fill="#121617"/>
<path d="M100.37 40.3847C102.293 42.4557 103.107 42.9734 104.438 43.1953V43.861H99.7042L95.858 38.1657H95.1923V40.6805C95.1923 42.8255 95.4882 43.1953 97.2633 43.1953V43.861H90.3846V43.1953C92.1598 43.1953 92.4557 42.8255 92.4557 40.6805V34.0237C92.4557 31.8788 92.1598 31.5089 90.3846 31.5089V30.8433H97.6332C100.296 30.8433 101.997 32.4705 101.997 34.5415C101.997 36.4646 100.518 37.9439 98.1509 38.1657L100.37 40.3847ZM99.1864 34.3936C99.1864 32.9143 98.2988 31.7308 96.3758 31.7308H95.1923V37.1302H96.3758C98.2988 37.0563 99.1864 35.8728 99.1864 34.3936Z" fill="#121617"/>
<path d="M109.172 40.6066C109.172 42.7515 109.467 43.1214 111.243 43.1214V43.787H106.139V43.1214C107.914 43.1214 108.21 42.7515 108.21 40.6066V33.9498C108.21 31.8048 107.914 31.435 106.139 31.435V30.7693H110.651L114.571 40.1628L118.491 30.7693H122.855V31.435C121.006 31.435 120.784 31.8048 120.784 33.9498V40.6066C120.784 42.7515 121.08 43.1214 122.855 43.1214V43.787H116.124V43.1214C117.899 43.1214 118.195 42.7515 118.195 40.6066V33.8018L113.905 44.1569H113.462L109.098 33.8018V40.6066H109.172Z" fill="#121617"/>
<path d="M125.592 43.787V43.1214C127.367 43.1214 127.663 42.7515 127.663 40.6066V33.9498C127.663 31.8048 127.367 31.435 125.592 31.435V30.7693H132.47V31.435C130.695 31.435 130.399 31.8048 130.399 33.9498V40.6066C130.399 42.7515 130.695 43.1214 132.47 43.1214V43.787H125.592Z" fill="#121617"/>
<path d="M146.672 33.9498C146.672 31.8048 146.376 31.435 144.601 31.435V30.7693H149.778V31.435C147.929 31.435 147.707 31.8048 147.707 33.9498V44.1569H147.189L138.166 33.432V40.6066C138.166 42.7515 138.462 43.1214 140.237 43.1214V43.787H135.133V43.1214C136.908 43.1214 137.204 42.7515 137.204 40.6066V33.9498C137.204 31.8048 136.908 31.435 135.133 31.435V30.7693H139.497L146.746 39.4231V33.9498H146.672Z" fill="#121617"/>
<path d="M152.293 43.787V43.1214C154.068 43.1214 154.364 42.7515 154.364 40.6066V33.9498C154.364 31.8048 154.068 31.435 152.293 31.435V30.7693H159.172V31.435C157.397 31.435 157.101 31.8048 157.101 33.9498V40.6066C157.101 42.7515 157.397 43.1214 159.172 43.1214V43.787H152.293Z" fill="#121617"/>
<path d="M162.574 44.1569H161.982V39.3492H162.648C163.092 41.6421 164.867 43.1214 166.642 43.1214C167.899 43.1214 168.787 42.3817 168.787 40.9764C168.787 40.1628 168.195 39.2752 167.16 38.7575L165.089 37.648C163.24 36.6865 162.13 35.7249 162.13 33.506C162.13 31.7309 163.831 30.2516 165.902 30.2516C167.16 30.2516 167.899 30.6954 168.565 31.1391C168.861 30.9172 169.083 30.6214 169.231 30.1036H169.823V34.9113H169.157C169.009 33.2101 168.343 31.2131 166.05 31.2131C165.163 31.2131 164.275 31.8788 164.275 32.9883C164.275 33.6539 164.867 34.6155 166.05 35.2072L168.121 36.2427C169.675 37.0563 170.932 38.3877 170.932 40.0888C170.932 42.4557 168.861 44.009 166.642 44.009C165.015 44.009 163.979 43.1214 163.24 42.9735C162.944 43.3433 162.722 43.6391 162.574 44.1569Z" fill="#121617"/>
<path d="M186.317 33.8018H185.651L185.577 33.358C185.281 32.1746 185.059 31.7308 183.062 31.7308H180.917V40.6066C180.917 42.7515 181.213 43.1214 182.988 43.1214V43.787H176.109V43.1214C177.885 43.1214 178.18 42.7515 178.18 40.6066V31.7308H176.035C174.038 31.7308 173.817 32.2486 173.521 33.358L173.447 33.8018H172.781L173.003 30.7693H186.243L186.317 33.8018Z" fill="#121617"/>
<path d="M188.018 43.1214C189.793 43.1214 190.089 42.7515 190.089 40.6066V33.9498C190.089 31.8048 189.793 31.435 188.018 31.435V30.7693H199.186L199.334 33.8018H198.669L198.595 33.358C198.299 32.1746 198.077 31.7308 196.08 31.7308H192.752V36.3906H193.935C196.08 36.3906 196.45 36.0947 196.45 34.3196H197.115V39.4971H196.45C196.45 37.648 196.08 37.4261 193.935 37.4261H192.752V40.3107C192.752 42.4557 193.047 42.8255 194.823 42.8255H196.746C198.743 42.8255 198.965 42.3078 199.26 41.1983L199.334 40.7545H200L199.852 43.787H187.944V43.1214H188.018Z" fill="#121617"/>
<path d="M212.5 40.3847C214.423 42.4557 215.237 42.9734 216.568 43.1953V43.861H211.834L207.988 38.1657H207.322V40.6805C207.322 42.8255 207.618 43.1953 209.393 43.1953V43.861H202.515V43.1953C204.29 43.1953 204.586 42.8255 204.586 40.6805V34.0237C204.586 31.8788 204.29 31.5089 202.515 31.5089V30.8433H209.763C212.426 30.8433 214.127 32.4705 214.127 34.5415C214.127 36.4646 212.648 37.9439 210.281 38.1657L212.5 40.3847ZM211.317 34.3936C211.317 32.9143 210.429 31.7308 208.506 31.7308H207.322V37.1302H208.506C210.429 37.0563 211.317 35.8728 211.317 34.3936Z" fill="#121617"/>
<path d="M217.973 43.787V43.1214C219.749 43.1214 220.044 42.7515 220.044 40.6066V33.9498C220.044 31.8048 219.749 31.435 217.973 31.435V30.7693H224.852V31.435C223.077 31.435 222.781 31.8048 222.781 33.9498V40.6066C222.781 42.7515 223.077 43.1214 224.852 43.1214V43.787H217.973Z" fill="#121617"/>
<path d="M227.145 43.1214C228.92 43.1214 229.216 42.7515 229.216 40.6066V33.9498C229.216 31.8048 228.92 31.435 227.145 31.435V30.7693H238.314L238.462 33.8018H237.796L237.722 33.358C237.426 32.1746 237.204 31.7308 235.207 31.7308H231.879V36.3906H233.062C235.207 36.3906 235.577 36.0947 235.577 34.3196H236.243V39.4971H235.577C235.577 37.648 235.207 37.4261 233.062 37.4261H231.879V40.3107C231.879 42.4557 232.175 42.8255 233.95 42.8255H235.873C237.87 42.8255 238.092 42.3078 238.388 41.1983L238.462 40.7545H239.127L238.979 43.787H227.071V43.1214H227.145Z" fill="#121617"/>
<path d="M254.438 33.8018H253.772L253.698 33.358C253.402 32.1746 253.18 31.7308 251.183 31.7308H249.038V40.6066C249.038 42.7515 249.334 43.1214 251.109 43.1214V43.787H244.231V43.1214C246.006 43.1214 246.302 42.7515 246.302 40.6066V31.7308H244.083C242.086 31.7308 241.864 32.2486 241.568 33.358L241.494 33.8018H240.828L241.05 30.7693H254.29L254.438 33.8018Z" fill="#121617"/>
<path d="M0.81361 0H0V50H0.81361V0Z" fill="#121617"/>
</g>
<defs>
<clipPath id="clip0">
<rect width="262.648" height="50" fill="white"/>
</clipPath>
</defs>
</svg>
