<svg width="279" height="50" viewBox="0 0 279 50" fill="none" xmlns="http://www.w3.org/2000/svg">
<path d="M21.9917 19.009C18.0332 19.009 14.8077 15.9025 14.8077 12.1303C14.8077 8.3581 18.0332 5.25159 21.9917 5.25159C25.9501 5.25159 29.1756 8.3581 29.1756 12.1303C29.1756 15.9025 25.8768 19.009 21.9917 19.009ZM21.9917 6.28709C18.9128 6.28709 17.74 9.46756 17.74 12.1303C17.74 14.793 18.9861 17.9735 21.9917 17.9735C24.9972 17.9735 26.2434 14.793 26.2434 12.1303C26.2434 9.46756 24.9972 6.28709 21.9917 6.28709Z" fill="#121617"/>
<path d="M42.9569 9.2456C42.9569 11.2426 41.2709 12.8699 38.6319 12.8699H36.1395V15.3847C36.1395 17.5296 36.4327 17.8994 38.192 17.8994V18.5651H31.3746V17.8994C33.134 17.8994 33.4272 17.5296 33.4272 15.3847V8.72785C33.4272 6.58288 33.134 6.21305 31.3746 6.21305V5.62134H38.5586C41.2708 5.62134 42.9569 7.24856 42.9569 9.2456ZM40.098 9.2456C40.098 7.76631 39.2183 6.58288 37.3124 6.58288H36.1395V11.9823H37.3124C39.2183 11.9083 40.098 10.7249 40.098 9.2456Z" fill="#121617"/>
<path d="M45.0828 17.9734C46.8421 17.9734 47.1353 17.6036 47.1353 15.4586V8.80181C47.1353 6.65684 46.8421 6.28702 45.0828 6.28702V5.62134H56.1519L56.2985 8.65388H55.712L55.6387 8.2101C55.3455 7.02666 55.1256 6.58288 53.1463 6.58288H49.8476V11.2426H51.0205C53.1463 11.2426 53.5129 10.9468 53.5129 9.17163H54.1726V14.3491H53.5129C53.5129 12.5 53.1463 12.2781 51.0205 12.2781H49.8476V15.1628C49.8476 17.3077 50.1408 17.6776 51.9002 17.6776H53.8061C55.7853 17.6776 56.0053 17.1598 56.2985 16.0503L56.3718 15.6065H57.0315L56.8849 18.6391H45.0828V17.9734Z" fill="#121617"/>
<path d="M72.1325 8.65388H71.4727L71.3994 8.2101C71.1062 7.02666 70.8863 6.58288 68.907 6.58288H66.7079V15.4586C66.7079 17.6036 67.0011 17.9734 68.7604 17.9734V18.6391H61.943V17.9734C63.7024 17.9734 63.9956 17.6036 63.9956 15.4586V6.58288H61.8697C59.8905 6.58288 59.6706 7.10063 59.3773 8.2101L59.304 8.65388H58.6443L58.8642 5.62134H71.9859L72.1325 8.65388Z" fill="#121617"/>
<path d="M82.9083 6.21305V5.62134H88.1863V6.28702C86.4269 6.28702 86.1337 6.65684 86.1337 8.80181V13.8314C86.1337 17.2338 83.788 19.0089 80.929 19.0089C78.0701 19.0089 75.7977 17.2338 75.7977 13.8314V8.80181C75.7977 6.65684 75.5044 6.28702 73.7451 6.28702V5.62134H80.5625V6.28702C78.7299 6.28702 78.51 6.65684 78.51 8.80181V13.6095C78.51 16.4202 79.9761 17.7515 81.882 17.7515C83.7146 17.7515 85.0341 16.4202 85.0341 13.6095V8.80181C84.9608 6.58288 84.7409 6.21305 82.9083 6.21305Z" fill="#121617"/>
<path d="M91.4851 19.0089H90.8253V14.2013H91.4851C91.9249 16.4942 93.6842 17.9734 95.4435 17.9734C96.6897 17.9734 97.5694 17.2338 97.5694 15.8285C97.5694 15.0149 96.983 14.1273 95.9567 13.6095L93.9041 12.5001C92.0715 11.5385 90.9719 10.577 90.9719 8.35806C90.9719 6.58291 92.6579 5.10362 94.7105 5.10362C95.9567 5.10362 96.6897 5.5474 97.3495 5.99119C97.6427 5.7693 97.8626 5.47344 98.0092 4.95569H98.5957V9.76338H97.9359C97.7893 8.0622 97.1296 6.06516 94.8571 6.06516C93.9774 6.06516 93.0978 6.73084 93.0978 7.8403C93.0978 8.50598 93.6842 9.46752 94.8571 10.0592L96.9097 11.0947C98.4491 11.9084 99.6953 13.2397 99.6953 14.9409C99.6953 17.3078 97.6427 18.861 95.4435 18.861C93.8308 18.861 92.8046 17.9734 92.0715 17.8255C91.8516 18.1953 91.5584 18.4912 91.4851 19.0089Z" fill="#121617"/>
<path d="M102.774 13.2398V11.5386H109.078V13.2398H102.774Z" fill="#121617"/>
<path d="M117.802 19.7486V8.72785C117.802 6.58288 117.508 6.21305 115.749 6.21305V5.62134H122.567V6.28702C120.807 6.28702 120.514 6.65684 120.514 8.80181V18.787C120.514 22.0415 118.535 23.5207 116.116 23.5207C114.283 23.5207 112.597 22.4113 112.597 20.858C112.597 20.3403 112.964 19.9704 113.477 19.9704C113.99 19.9704 114.356 20.4142 114.356 20.858C114.356 21.5977 114.796 22.5592 116.042 22.5592C117.215 22.4852 117.802 21.6716 117.802 19.7486Z" fill="#121617"/>
<path d="M126.305 16.3463C125.792 17.5297 126.158 17.9735 127.918 17.9735V18.6392H122.713V17.9735C124.179 17.9735 124.692 17.6036 125.352 16.0504L130.044 5.17761H130.483L135.175 16.0504C135.761 17.4557 136.055 17.9735 137.814 17.9735V18.6392H130.777V17.9735C132.683 17.9735 132.903 17.4557 132.389 16.3463L131.51 14.2752H127.185L126.305 16.3463ZM129.384 9.24566L127.625 13.3137H131.07L129.384 9.24566Z" fill="#121617"/>
<path d="M27.856 41.864C28.5891 42.6036 30.0552 43.1213 30.6416 43.1213V43.787H23.4577V43.1213C24.5573 43.1213 25.0704 42.7515 24.2641 41.864L20.0124 37.2042L19.0594 37.9438V40.6066C19.0594 42.7515 19.3526 43.1213 21.1119 43.1213V43.787H14.2946V43.1213C16.0539 43.1213 16.3471 42.7515 16.3471 40.6066V33.9498C16.3471 31.8048 16.0539 31.435 14.2946 31.435V30.7693H21.1119V31.435C19.3526 31.435 19.0594 31.8048 19.0594 33.9498V36.8344L23.6043 33.1361C24.1175 32.6924 25.5103 31.361 23.6776 31.361V30.6953H28.8823V31.361C27.0497 31.361 26.3166 32.0267 24.9238 33.1361L21.845 35.577L27.856 41.864Z" fill="#121617"/>
<path d="M39.2917 31.361V30.6953H44.5697V31.361C42.8104 31.361 42.5171 31.7308 42.5171 33.8758V38.9054C42.5171 42.3077 40.1714 44.0829 37.3125 44.0829C34.4536 44.0829 32.1811 42.3077 32.1811 38.9054V33.8758C32.1811 31.7308 31.8879 31.361 30.1285 31.361V30.6953H36.9459V31.361C35.1133 31.361 34.8934 31.7308 34.8934 33.8758V38.6835C34.8934 41.4941 36.3595 42.8255 38.2654 42.8255C40.0981 42.8255 41.4176 41.4941 41.4176 38.6835V33.8758C41.3443 31.7308 41.1243 31.361 39.2917 31.361Z" fill="#121617"/>
<path d="M45.8892 31.361V30.6953H52.7066V31.361C50.9472 31.361 50.654 31.7308 50.654 33.8758V40.2367C50.654 42.3817 50.9472 42.7515 52.7066 42.7515H55.1989C57.1782 42.7515 57.3981 42.2338 57.6913 41.1243L57.7646 40.6805H58.4244L58.2778 43.7131H45.8892V43.0474C47.6485 43.0474 47.9417 42.6776 47.9417 40.5326V33.8758C47.9417 31.7308 47.7218 31.361 45.8892 31.361Z" fill="#121617"/>
<path d="M71.2528 33.8018H70.593L70.5197 33.358C70.2265 32.1746 70.0066 31.7308 68.0273 31.7308H65.9015V40.6066C65.9015 42.7515 66.1947 43.1214 67.954 43.1214V43.787H61.1366V43.1214C62.896 43.1214 63.1892 42.7515 63.1892 40.6066V31.7308H61.0633C59.0841 31.7308 58.8642 32.2486 58.5709 33.358L58.4976 33.8018H57.8379L58.0578 30.7693H71.1795L71.2528 33.8018Z" fill="#121617"/>
<path d="M85.6207 33.8018H85.0342L84.9609 33.358C84.6677 32.1746 84.4478 31.7308 82.4685 31.7308H80.3427V40.6066C80.3427 42.7515 80.6359 43.1214 82.3952 43.1214V43.787H75.5045V43.1214C77.2639 43.1214 77.5571 42.7515 77.5571 40.6066V31.7308H75.4312C73.452 31.7308 73.2321 32.2486 72.9389 33.358L72.8656 33.8018H72.2058L72.4257 30.7693H85.5474L85.6207 33.8018Z" fill="#121617"/>
<path d="M96.1034 31.361V30.6953H101.381V31.361C99.622 31.361 99.3288 31.7308 99.3288 33.8758V38.9054C99.3288 42.3077 96.983 44.0829 94.1241 44.0829C91.2652 44.0829 88.9927 42.3077 88.9927 38.9054V33.8758C88.9927 31.7308 88.6995 31.361 86.9402 31.361V30.6953H93.7576V31.361C91.9249 31.361 91.705 31.7308 91.705 33.8758V38.6835C91.705 41.4941 93.1711 42.8255 95.0771 42.8255C96.9097 42.8255 98.2292 41.4941 98.2292 38.6835V33.8758C98.2292 31.7308 97.936 31.361 96.1034 31.361Z" fill="#121617"/>
<path d="M111.717 31.361V30.6953H116.995V31.361C115.236 31.361 114.943 31.7308 114.943 33.8758V38.9054C114.943 42.3077 112.597 44.0829 109.738 44.0829C106.879 44.0829 104.607 42.3077 104.607 38.9054V33.8758C104.607 31.7308 104.313 31.361 102.554 31.361V30.6953H109.371V31.361C107.539 31.361 107.319 31.7308 107.319 33.8758V38.6835C107.319 41.4941 108.785 42.8255 110.691 42.8255C112.524 42.8255 113.843 41.4941 113.843 38.6835V33.8758C113.77 31.7308 113.477 31.361 111.717 31.361Z" fill="#121617"/>
<path d="M128.064 40.3847C129.97 42.4557 130.777 42.9734 132.096 43.1953V43.861H127.405L123.593 38.1657H122.933V40.6805C122.933 42.8255 123.226 43.1953 124.986 43.1953V43.861H118.168V43.1953C119.928 43.1953 120.221 42.8255 120.221 40.6805V34.0237C120.221 31.8788 119.928 31.5089 118.168 31.5089V30.8433H125.352C127.991 30.8433 129.677 32.4705 129.677 34.5415C129.677 36.4646 128.211 37.9439 125.865 38.1657L128.064 40.3847ZM126.892 34.3936C126.892 32.9143 126.012 31.7308 124.106 31.7308H122.933V37.1302H124.106C126.012 37.0563 126.892 35.8728 126.892 34.3936Z" fill="#121617"/>
<path d="M133.855 43.787V43.1214C135.615 43.1214 135.908 42.7515 135.908 40.6066V33.9498C135.908 31.8048 135.615 31.435 133.855 31.435V30.7693H140.673V31.435C138.914 31.435 138.62 31.8048 138.62 33.9498V40.6066C138.62 42.7515 138.914 43.1214 140.673 43.1214V43.787H133.855Z" fill="#121617"/>
<path d="M146.611 40.6066C146.611 42.7515 146.904 43.1214 148.663 43.1214V43.787H143.605V43.1214C145.364 43.1214 145.658 42.7515 145.658 40.6066V33.9498C145.658 31.8048 145.364 31.435 143.605 31.435V30.7693H148.077L151.962 40.1628L155.847 30.7693H160.172V31.435C158.339 31.435 158.12 31.8048 158.12 33.9498V40.6066C158.12 42.7515 158.413 43.1214 160.172 43.1214V43.787H153.501V43.1214C155.261 43.1214 155.554 42.7515 155.554 40.6066V33.8018L151.302 44.1569H150.862L146.537 33.8018V40.6066H146.611Z" fill="#121617"/>
<path d="M163.251 43.787V43.1214C165.01 43.1214 165.304 42.7515 165.304 40.6066V33.9498C165.304 31.8048 165.01 31.435 163.251 31.435V30.7693H170.068V31.435C168.309 31.435 168.016 31.8048 168.016 33.9498V40.6066C168.016 42.7515 168.309 43.1214 170.068 43.1214V43.787H163.251Z" fill="#121617"/>
<path d="M184.436 33.9498C184.436 31.8048 184.143 31.435 182.384 31.435V30.7693H187.515V31.435C185.682 31.435 185.462 31.8048 185.462 33.9498V44.1569H184.949L175.933 33.432V40.6066C175.933 42.7515 176.226 43.1214 177.985 43.1214V43.787H172.927V43.1214C174.687 43.1214 174.98 42.7515 174.98 40.6066V33.9498C174.98 31.8048 174.687 31.435 172.927 31.435V30.7693H177.252L184.436 39.4231V33.9498V33.9498Z" fill="#121617"/>
<path d="M189.934 43.787V43.1214C191.693 43.1214 191.987 42.7515 191.987 40.6066V33.9498C191.987 31.8048 191.693 31.435 189.934 31.435V30.7693H196.751V31.435C194.992 31.435 194.699 31.8048 194.699 33.9498V40.6066C194.699 42.7515 194.992 43.1214 196.751 43.1214V43.787H189.934Z" fill="#121617"/>
<path d="M200.417 44.1569H199.757V39.3492H200.417C200.857 41.6421 202.616 43.1214 204.375 43.1214C205.621 43.1214 206.501 42.3817 206.501 40.9764C206.501 40.1628 205.915 39.2752 204.888 38.7575L202.836 37.648C201.003 36.6865 199.904 35.7249 199.904 33.506C199.904 31.7309 201.59 30.2516 203.642 30.2516C204.888 30.2516 205.621 30.6954 206.281 31.1391C206.574 30.9172 206.794 30.6214 206.941 30.1036H207.527V34.9113H206.868C206.721 33.2101 206.061 31.2131 203.789 31.2131C202.909 31.2131 202.029 31.8788 202.029 32.9883C202.029 33.6539 202.616 34.6155 203.789 35.2072L205.841 36.2427C207.381 37.0563 208.627 38.3877 208.627 40.0888C208.627 42.4557 206.574 44.009 204.375 44.009C202.762 44.009 201.736 43.1214 201.003 42.9735C200.783 43.3433 200.563 43.6391 200.417 44.1569Z" fill="#121617"/>
<path d="M223.874 33.8018H223.215L223.141 33.358C222.848 32.1746 222.628 31.7308 220.649 31.7308H218.523V40.6066C218.523 42.7515 218.816 43.1214 220.576 43.1214V43.787H213.758V43.1214C215.518 43.1214 215.811 42.7515 215.811 40.6066V31.7308H213.685C211.706 31.7308 211.486 32.2486 211.193 33.358L211.119 33.8018H210.386L210.606 30.7693H223.728L223.874 33.8018Z" fill="#121617"/>
<path d="M225.78 43.1214C227.54 43.1214 227.833 42.7515 227.833 40.6066V33.9498C227.833 31.8048 227.54 31.435 225.78 31.435V30.7693H236.85L236.996 33.8018H236.336L236.263 33.358C235.97 32.1746 235.75 31.7308 233.771 31.7308H230.472V36.3906H231.645C233.771 36.3906 234.137 36.0947 234.137 34.3196H234.797V39.4971H234.137C234.137 37.648 233.771 37.4261 231.645 37.4261H230.472V40.3107C230.472 42.4557 230.765 42.8255 232.524 42.8255H234.43C236.41 42.8255 236.63 42.3078 236.923 41.1983L236.996 40.7545H237.656L237.509 43.787H225.78V43.1214Z" fill="#121617"/>
<path d="M249.824 40.3847C251.73 42.4557 252.537 42.9734 253.856 43.1953V43.861H249.165L245.353 38.1657H244.693V40.6805C244.693 42.8255 244.986 43.1953 246.746 43.1953V43.861H239.928V43.1953C241.688 43.1953 241.981 42.8255 241.981 40.6805V34.0237C241.981 31.8788 241.688 31.5089 239.928 31.5089V30.8433H247.112C249.751 30.8433 251.437 32.4705 251.437 34.5415C251.437 36.4646 249.971 37.9439 247.625 38.1657L249.824 40.3847ZM248.652 34.3936C248.652 32.9143 247.772 31.7308 245.866 31.7308H244.693V37.1302H245.866C247.772 37.0563 248.652 35.8728 248.652 34.3936Z" fill="#121617"/>
<path d="M255.469 43.787V43.1214C257.228 43.1214 257.522 42.7515 257.522 40.6066V33.9498C257.522 31.8048 257.228 31.435 255.469 31.435V30.7693H262.286V31.435C260.527 31.435 260.234 31.8048 260.234 33.9498V40.6066C260.234 42.7515 260.527 43.1214 262.286 43.1214V43.787H255.469Z" fill="#121617"/>
<path d="M271.816 44.1568C267.858 44.1568 264.632 41.0503 264.632 37.2781C264.632 33.5059 267.858 30.3994 271.816 30.3994C275.774 30.3994 279 33.5059 279 37.2781C279 41.0503 275.774 44.1568 271.816 44.1568ZM271.816 31.4349C268.737 31.4349 267.564 34.6154 267.564 37.2781C267.564 39.9409 268.81 43.1213 271.816 43.1213C274.821 43.1213 276.068 39.9409 276.068 37.2781C276.068 34.6154 274.895 31.4349 271.816 31.4349ZM270.79 28.0326C270.79 28.6243 270.35 29.142 269.69 29.142C269.104 29.142 268.591 28.6243 268.591 28.0326C268.591 27.4408 269.104 26.9231 269.69 26.9231C270.35 26.9231 270.79 27.4408 270.79 28.0326ZM275.115 28.0326C275.115 28.6243 274.675 29.142 274.015 29.142C273.429 29.142 272.916 28.6243 272.916 28.0326C272.916 27.4408 273.355 26.9231 274.015 26.9231C274.602 26.9231 275.115 27.4408 275.115 28.0326Z" fill="#121617"/>
<path d="M0.806358 0H0V50H0.806358V0Z" fill="#121617"/>
</svg>
